<?xml version="1.0" encoding="utf-8"?>
<!-- Generator: Adobe Illustrator 17.0.0, SVG Export Plug-In . SVG Version: 6.00 Build 0)  -->
<!DOCTYPE svg PUBLIC "-//W3C//DTD SVG 1.1//EN" "http://www.w3.org/Graphics/SVG/1.1/DTD/svg11.dtd">
<svg version="1.1" id="Capa_1" xmlns="http://www.w3.org/2000/svg" xmlns:xlink="http://www.w3.org/1999/xlink" x="0px" y="0px"
	 width="57.666px" height="57.665px" viewBox="0 0 57.666 57.665" enable-background="new 0 0 57.666 57.665" xml:space="preserve">
<g>
	<g>
		<g>
			<g>
				<g>
					<g>
						<path fill="#EB001B" d="M28.831,57.665c-0.268,0-0.537-0.097-0.748-0.29C26.928,56.319-0.201,31.355,0.001,15.88
							c0.056-4.265,1.842-8.26,5.03-11.249C8.215,1.645,12.448,0,16.95,0c4.453,0,8.72,1.651,11.881,4.563
							C31.991,1.651,36.258,0,40.711,0c4.801,0,9.409,1.903,12.643,5.22c2.879,2.954,4.408,6.755,4.307,10.703
							c-0.404,15.628-26.946,40.399-28.076,41.446C29.372,57.566,29.102,57.665,28.831,57.665z M16.95,2.218
							c-8.024,0-14.633,6.142-14.731,13.691C2.048,29.032,24.401,50.846,28.826,55.033c4.361-4.186,26.274-25.865,26.618-39.166
							c0.086-3.345-1.22-6.576-3.679-9.098c-2.818-2.892-6.847-4.55-11.054-4.55c-4.236,0-8.273,1.7-11.074,4.664
							c-0.21,0.222-0.502,0.347-0.806,0.347c-0.306,0-0.596-0.126-0.806-0.347C25.223,3.918,21.187,2.218,16.95,2.218z"/>
					</g>
					<g>
						<path fill="#EB001B" d="M28.832,40.79c-0.612,0-1.109-0.497-1.109-1.109V16.779c0-0.612,0.497-1.109,1.109-1.109
							c0.612,0,1.109,0.497,1.109,1.109v22.902C29.941,40.293,29.445,40.79,28.832,40.79z"/>
					</g>
					<g>
						<path fill="#EB001B" d="M40.284,29.339H17.382c-0.612,0-1.109-0.497-1.109-1.109s0.497-1.109,1.109-1.109h22.902
							c0.612,0,1.109,0.497,1.109,1.109S40.896,29.339,40.284,29.339z"/>
					</g>
				</g>
			</g>
		</g>
	</g>
</g>
</svg>
