<?xml version="1.0" encoding="utf-8"?>
<!-- Generator: Adobe Illustrator 17.0.0, SVG Export Plug-In . SVG Version: 6.00 Build 0)  -->
<!DOCTYPE svg PUBLIC "-//W3C//DTD SVG 1.1//EN" "http://www.w3.org/Graphics/SVG/1.1/DTD/svg11.dtd">
<svg version="1.1" id="Capa_1" xmlns="http://www.w3.org/2000/svg" xmlns:xlink="http://www.w3.org/1999/xlink" x="0px" y="0px"
	 width="64.25px" height="70.72px" viewBox="0 0 64.25 70.72" enable-background="new 0 0 64.25 70.72" xml:space="preserve">
<rect x="846.5" y="-305.5" fill="#E6E6E6" width="1920" height="307"/>
<rect x="846.5" y="1020.5" fill="#E6E6E6" width="1920" height="484"/>
<g>
	<defs>
		<rect id="SVGID_1_" x="839" y="-1145.5" width="1942" height="884"/>
	</defs>
	<clipPath id="SVGID_2_">
		<use xlink:href="#SVGID_1_"  overflow="visible"/>
	</clipPath>
	<g clip-path="url(#SVGID_2_)">
		
			<image overflow="visible" width="8113" height="5410" xlink:href="4AF0184D.jpg"  transform="matrix(0.2639 0 0 0.2656 498 -1467.3722)">
		</image>
		<g>
			
				<image overflow="visible" width="8113" height="5410" xlink:href="4AF0184F.jpg"  transform="matrix(-0.2639 0 0 0.2656 4779.6948 -1467.3722)">
			</image>
		</g>
	</g>
</g>
<g>
	
		<image overflow="visible" opacity="0.18" width="663" height="811" xlink:href="4AF0184D.png"  transform="matrix(1 0 0 1 2044 -1116.5)">
	</image>
	<g>
		<path fill="#000093" d="M2638.566-328.098h-528.133c-27.302,0-49.434-22.132-49.434-49.433v-674.659
			c0-27.301,22.132-49.433,49.434-49.433h528.133c27.302,0,49.434,22.132,49.434,49.433v674.659
			C2688-350.23,2665.868-328.098,2638.566-328.098z"/>
	</g>
</g>
<g>
	<text transform="matrix(1 0 0 1 1679.635 114.8975)" fill="#EB001B" font-family="'ProximaNova-Bold'" font-size="44.4639">BENEFICIOS</text>
</g>
<g>
	
		<text transform="matrix(1 0 0 1 1168.25 -94.209)" fill="#000093" font-family="'AcuminConcept-CondensedLightItalic'" font-size="133.1263">WITH YOU</text>
	<text transform="matrix(1 0 0 1 1274.1465 -48.9844)" font-family="'Gotham-Medium'" font-size="23.9524">Con vos, para lo que necesites</text>
	<g>
		<rect x="1748.346" y="-141.023" fill="none" width="625.382" height="89.523"/>
		<text transform="matrix(1 0 0 1 1748.3463 -123.3076)"><tspan x="0" y="0" fill="#444042" font-family="'ProximaNova-Medium'" font-size="24.9514">Es un servicio pensado para escuchar tus necesidades de la </tspan><tspan x="0" y="32.876" fill="#444042" font-family="'ProximaNova-Medium'" font-size="24.9514">mano de profesionales que estarán a tu servicio.</tspan><tspan x="0" y="65.752" fill="#444042" font-family="'ProximaNova-Medium'" font-size="24.9514">Si tenés Mastercard, podrás tener With You.</tspan></text>
	</g>
</g>
<text transform="matrix(1 0 0 1 1275.28 314.3027)" fill="#000093" font-family="'Gotham-Medium'" font-size="22">Apoyo Emocional</text>
<text transform="matrix(1 0 0 1 1692.2681 314.3027)" fill="#000093" font-family="'Gotham-Medium'" font-size="22">Asesoramiento Legal</text>
<text transform="matrix(1 0 0 1 2098.4878 314.3027)" fill="#000093" font-family="'Gotham-Medium'" font-size="22">Asesoramiento Financiero</text>
<text transform="matrix(1 0 0 1 1268.5591 612.0869)" fill="#000093" font-family="'Gotham-Medium'" font-size="22">Wellness Coaching</text>
<text transform="matrix(1 0 0 1 1697.1738 612.0869)" fill="#000093" font-family="'Gotham-Medium'" font-size="22">Corporate Coaching</text>
<text transform="matrix(1 0 0 1 2141.145 612.0869)" fill="#000093" font-family="'Gotham-Medium'" font-size="22">Información Covid</text>
<g>
	<rect x="1216.48" y="335.424" fill="none" width="314.587" height="107.076"/>
	<text transform="matrix(1 0 0 1 1226.6113 348.9141)"><tspan x="0" y="0" fill="#444042" font-family="'ProximaNova-Medium'" font-size="19">Sesiones orientativas sobre ansiedad, </tspan><tspan x="13.119" y="28.986" fill="#444042" font-family="'ProximaNova-Medium'" font-size="19">depresión, incertidumbre, falta de </tspan><tspan x="29.497" y="57.974" fill="#444042" font-family="'ProximaNova-Medium'" font-size="19">sueño guiadas por psicólogos </tspan><tspan x="102.693" y="86.961" fill="#444042" font-family="'ProximaNova-Medium'" font-size="19">graduados.</tspan></text>
</g>
<g>
	<rect x="1661.99" y="335.424" fill="none" width="294.721" height="90.076"/>
	<text transform="matrix(1 0 0 1 1679.8862 348.9141)"><tspan x="0" y="0" fill="#444042" font-family="'ProximaNova-Medium'" font-size="19">Asesoría jurídica relacionada con </tspan><tspan x="13.224" y="28.986" fill="#444042" font-family="'ProximaNova-Medium'" font-size="19">situaciones de conflicto legal.</tspan></text>
</g>
<g>
	<rect x="2077.485" y="335.424" fill="none" width="331.917" height="107.076"/>
	<text transform="matrix(1 0 0 1 2081.6702 348.9141)"><tspan x="0" y="0" fill="#444042" font-family="'ProximaNova-Medium'" font-size="19">Evaluación, diagnóstico y guía, asistencia </tspan><tspan x="0.542" y="28.986" fill="#444042" font-family="'ProximaNova-Medium'" font-size="19">personalizada sobre mejores alternativas </tspan><tspan x="24.272" y="57.974" fill="#444042" font-family="'ProximaNova-Medium'" font-size="19">para resolver consultas y conflictos </tspan><tspan x="116.392" y="86.961" fill="#444042" font-family="'ProximaNova-Medium'" font-size="19">financieros.</tspan></text>
</g>
<g>
	<rect x="1216.479" y="633.539" fill="none" width="314.587" height="90.076"/>
	<text transform="matrix(1 0 0 1 1219.9893 647.0291)"><tspan x="0" y="0" fill="#444042" font-family="'ProximaNova-Medium'" font-size="19">Brinda herramientas y ofrece una guías </tspan><tspan x="18.136" y="28.986" fill="#444042" font-family="'ProximaNova-Medium'" font-size="19">para que alcances tus objetivos de </tspan><tspan x="58.624" y="57.974" fill="#444042" font-family="'ProximaNova-Medium'" font-size="19">salud física y emocional.</tspan></text>
</g>
<g>
	<rect x="1648.846" y="633.539" fill="none" width="321.01" height="136.961"/>
	<text transform="matrix(1 0 0 1 1690.0514 647.0291)"><tspan x="0" y="0" fill="#444042" font-family="'ProximaNova-Medium'" font-size="19">Asesoramiento personalizado, </tspan><tspan x="9.538" y="28.986" fill="#444042" font-family="'ProximaNova-Medium'" font-size="19">metodología de las mejores </tspan><tspan x="-7.001" y="57.974" fill="#444042" font-family="'ProximaNova-Medium'" font-size="19">herramientas para potenciar tus </tspan><tspan x="-34.807" y="86.961" fill="#444042" font-family="'ProximaNova-Medium'" font-size="19">habilidades, mejorar la productividad y </tspan><tspan x="-9.053" y="115.948" fill="#444042" font-family="'ProximaNova-Medium'" font-size="19">liderar de la forma más eficiente.</tspan></text>
</g>
<g>
	<rect x="2096.083" y="633.539" fill="none" width="294.721" height="90.076"/>
	<text transform="matrix(1 0 0 1 2098.2856 647.0291)" fill="#444042" font-family="'ProximaNova-Medium'" font-size="19">Consultas y tramitación de permisos.</text>
</g>
<path fill="#EB001B" d="M2226.868,253.271c0.436-1.525,0.871-3.158,1.307-4.683c0.545-1.851,1.089-2.069,2.723-1.198
	c2.832,1.525,5.881,2.287,8.93,2.723c2.069,0.218,4.03,0,5.881-0.762c3.485-1.525,4.03-5.554,1.089-8.059
	c-0.98-0.871-2.178-1.416-3.376-1.96c-3.049-1.307-6.317-2.396-9.148-4.139c-4.683-2.832-7.733-6.643-7.297-12.416
	c0.436-6.426,4.03-10.564,10.02-12.633c2.396-0.871,2.505-0.871,2.505-3.376c0-0.871,0-1.743,0-2.614
	c0-1.96,0.327-2.287,2.287-2.287c0.544,0,1.198,0,1.742,0c4.139,0,4.139,0,4.139,4.139c0,2.941,0,2.941,2.94,3.376
	c2.178,0.327,4.356,0.98,6.317,1.851c1.089,0.545,1.525,1.307,1.198,2.505c-0.544,1.743-0.98,3.594-1.525,5.337
	c-0.544,1.634-1.089,1.851-2.614,1.089c-3.158-1.525-6.535-2.178-10.129-1.96c-0.98,0-1.851,0.218-2.723,0.545
	c-3.049,1.307-3.594,4.683-0.98,6.752c1.307,1.089,2.832,1.851,4.356,2.505c2.723,1.089,5.445,2.178,7.95,3.594
	c8.168,4.574,10.346,14.812,4.574,21.782c-2.069,2.505-4.792,4.247-7.95,5.119c-1.416,0.327-1.96,1.089-1.96,2.505
	c0.109,1.416,0,2.832,0,4.247c0,1.307-0.653,1.96-1.851,1.96c-1.525,0-3.05,0-4.574,0c-1.307,0-1.96-0.762-1.96-2.069
	c0-0.98,0-2.069,0-3.049c0-2.287-0.109-2.396-2.287-2.723c-2.832-0.436-5.554-1.089-8.059-2.287
	C2226.542,255.884,2226.324,255.34,2226.868,253.271z"/>
<g>
	<g>
		<g>
			<path fill="#EB001B" d="M1799.52,236.263l-8.049-19.547c-0.23-0.575-0.805-0.92-1.38-1.035c-0.575,0-1.15,0.345-1.495,0.92
				l-9.314,19.662c-0.46,0.23-0.805,0.805-0.805,1.38c0,5.979,4.829,10.808,10.808,10.923c0,0,0,0,0.115,0h0.115c0,0,0,0,0.115,0
				c5.979-0.115,10.808-4.944,10.808-10.923C1800.324,237.068,1799.979,236.493,1799.52,236.263z M1789.976,221.2l6.094,14.833
				h-13.108L1789.976,221.2z M1789.401,245.347c-3.679,0-6.669-2.645-7.474-6.094h14.948
				C1796.185,242.702,1793.08,245.232,1789.401,245.347z"/>
			<path fill="#EB001B" d="M1829.53,269.148h-39.439c-0.92,0-1.61-0.69-1.61-1.61s0.69-1.61,1.61-1.61h39.439
				c0.92,0,1.61,0.69,1.61,1.61C1831.14,268.458,1830.45,269.148,1829.53,269.148z"/>
			<path fill="#EB001B" d="M1839.304,236.148l-8.049-19.547c-0.23-0.575-0.805-0.92-1.38-1.035c-0.575,0-1.15,0.345-1.495,0.92
				l-9.314,19.662c-0.46,0.23-0.805,0.805-0.805,1.38c0,5.979,4.829,10.808,10.808,10.923c0,0,0,0,0.115,0h0.115c0,0,0,0,0.115,0
				c5.979-0.115,10.808-4.944,10.808-10.923C1840.109,236.953,1839.764,236.378,1839.304,236.148z M1829.76,221.085l6.094,14.833
				h-13.108L1829.76,221.085z M1829.185,245.232c-3.679,0-6.669-2.645-7.474-6.094h14.948
				C1835.969,242.587,1832.865,245.117,1829.185,245.232z"/>
			<path fill="#EB001B" d="M1829.53,209.012h-14.718c-0.46-1.61-1.84-2.99-3.449-3.45v-4.024c0-0.92-0.69-1.61-1.495-1.61
				c-0.92,0-1.61,0.69-1.61,1.61v4.024c-1.61,0.575-2.875,1.84-3.335,3.449h-14.833c-0.92,0-1.61,0.69-1.61,1.61
				s0.69,1.61,1.61,1.61h14.833c0.575,1.495,1.725,2.76,3.335,3.22v44.728h-10.119c-0.92,0-1.61,0.69-1.61,1.61
				c0,0.92,0.69,1.61,1.61,1.61h23.342c0.92,0,1.61-0.69,1.61-1.61c0-0.92-0.69-1.61-1.61-1.61h-10.119v-44.728
				c1.61-0.46,2.875-1.725,3.334-3.335h14.833c0.92,0,1.61-0.69,1.61-1.61C1831.14,209.587,1830.45,209.012,1829.53,209.012z
				 M1809.868,212.577c-1.15,0-2.07-0.92-2.07-2.07c0-1.15,0.92-2.07,2.07-2.07c1.15,0,2.07,0.92,2.07,2.07
				C1811.938,211.657,1811.018,212.577,1809.868,212.577z"/>
		</g>
	</g>
</g>
<g>
	<g>
		<g>
			<path fill="#EB001B" d="M21.836,37.835l-8.049-19.547c-0.23-0.575-0.805-0.92-1.38-1.035c-0.575,0-1.15,0.345-1.495,0.92
				L1.599,37.835c-0.46,0.23-0.805,0.805-0.805,1.38c0,5.979,4.829,10.808,10.808,10.923c0,0,0,0,0.115,0h0.115c0,0,0,0,0.115,0
				c5.979-0.115,10.808-4.944,10.808-10.923C22.64,38.64,22.296,38.065,21.836,37.835z M12.292,22.772l6.094,14.833H5.278
				L12.292,22.772z M11.717,46.918c-3.679,0-6.669-2.645-7.474-6.094h14.948C18.501,44.274,15.397,46.803,11.717,46.918z"/>
			<path fill="#EB001B" d="M51.846,70.72H12.407c-0.92,0-1.61-0.69-1.61-1.61c0-0.92,0.69-1.61,1.61-1.61h39.439
				c0.92,0,1.61,0.69,1.61,1.61C53.456,70.03,52.766,70.72,51.846,70.72z"/>
			<path fill="#EB001B" d="M61.62,37.72l-8.049-19.547c-0.23-0.575-0.805-0.92-1.38-1.035c-0.575,0-1.15,0.345-1.495,0.92
				L41.383,37.72c-0.46,0.23-0.805,0.805-0.805,1.38c0,5.979,4.829,10.808,10.808,10.923c0,0,0,0,0.115,0h0.115c0,0,0,0,0.115,0
				C57.71,49.908,62.54,45.079,62.54,39.1C62.425,38.525,62.08,37.95,61.62,37.72z M52.076,22.657L58.17,37.49H45.062L52.076,22.657
				z M51.501,46.803c-3.679,0-6.669-2.645-7.474-6.094h14.948C58.285,44.159,55.181,46.688,51.501,46.803z"/>
			<path fill="#EB001B" d="M51.846,10.584H37.128c-0.46-1.61-1.84-2.99-3.449-3.449V3.11c0-0.92-0.69-1.61-1.495-1.61
				c-0.92,0-1.61,0.69-1.61,1.61v4.024c-1.61,0.575-2.875,1.84-3.335,3.449H12.407c-0.92,0-1.61,0.69-1.61,1.61s0.69,1.61,1.61,1.61
				H27.24c0.575,1.495,1.725,2.76,3.335,3.22v44.728H20.456c-0.92,0-1.61,0.69-1.61,1.61s0.69,1.61,1.61,1.61h23.342
				c0.92,0,1.61-0.69,1.61-1.61s-0.69-1.61-1.61-1.61H33.679V17.023c1.61-0.46,2.875-1.725,3.335-3.335h14.833
				c0.92,0,1.61-0.69,1.61-1.61S52.766,10.584,51.846,10.584z M32.184,14.148c-1.15,0-2.07-0.92-2.07-2.07s0.92-2.07,2.07-2.07
				c1.15,0,2.07,0.92,2.07,2.07S33.334,14.148,32.184,14.148z"/>
		</g>
	</g>
</g>
<g>
	<g>
		<g>
			<g>
				<path fill="#EB001B" d="M2218.037,543.319c-1.647,0-2.988,1.286-2.988,2.866c0,1.579,1.341,2.864,2.988,2.864
					c1.645,0,2.983-1.285,2.983-2.864C2221.021,544.606,2219.683,543.319,2218.037,543.319z M2218.037,547.858
					c-0.99,0-1.795-0.749-1.795-1.671c0-0.923,0.805-1.673,1.795-1.673c0.988,0,1.79,0.75,1.79,1.673
					C2219.828,547.109,2219.024,547.858,2218.037,547.858z"/>
				<path fill="#EB001B" d="M2256.76,536.14c-0.292,0.153-0.404,0.513-0.252,0.805c0.885,1.691,1.333,3.508,1.333,5.4
					c0,6.751-5.805,12.242-12.941,12.242c-7.136,0-12.941-5.491-12.941-12.242c0-3.214,1.33-6.261,3.746-8.576
					c0.028-0.026,0.054-0.057,0.075-0.091c2.449-2.306,5.683-3.575,9.12-3.575c1.985,0,3.884,0.414,5.645,1.231
					c0.298,0.14,0.652,0.007,0.792-0.29c0.138-0.298,0.008-0.654-0.29-0.792c-1.92-0.891-3.99-1.342-6.147-1.342
					c-3.781,0-7.34,1.413-10.02,3.978c-0.029,0.027-0.055,0.06-0.079,0.095c-2.603,2.533-4.035,5.854-4.035,9.362
					c0,7.408,6.341,13.435,14.134,13.435c7.793,0,14.134-6.027,14.134-13.435c0-2.086-0.495-4.089-1.469-5.953
					C2257.412,536.101,2257.051,535.985,2256.76,536.14z"/>
				<path fill="#EB001B" d="M2236.024,541.123c0,1.868,1.589,3.387,3.54,3.387c1.951,0,3.539-1.52,3.539-3.387
					c0-1.869-1.588-3.389-3.539-3.389C2237.613,537.734,2236.024,539.254,2236.024,541.123z M2241.91,541.123
					c0,1.211-1.052,2.195-2.346,2.195c-1.294,0-2.347-0.985-2.347-2.195c0-1.211,1.053-2.196,2.347-2.196
					C2240.857,538.926,2241.91,539.912,2241.91,541.123z"/>
				<path fill="#EB001B" d="M2247.843,541.051c-2.154,0-3.907,1.677-3.907,3.738c0,2.061,1.753,3.737,3.907,3.737
					c2.155,0,3.908-1.677,3.908-3.737C2251.751,542.728,2249.998,541.051,2247.843,541.051z M2247.843,547.333
					c-1.497,0-2.715-1.141-2.715-2.544c0-1.404,1.218-2.545,2.715-2.545c1.498,0,2.716,1.143,2.716,2.545
					S2249.341,547.333,2247.843,547.333z"/>
				<path fill="#EB001B" d="M2278.019,525.16c-2.694,0-5.092,1.659-5.947,4.073c-1.271,0.373-3.748,1.07-6.263,1.355
					c-2.226,0.255-4.589,0.377-6.165,0.41c-2.935-3.441-7.04-5.705-11.633-6.426c-0.261-1.282-0.532-2.752-0.685-4.275
					c-0.17-1.806,0.032-3.85,0.161-4.869c1.288-0.885,2.048-2.288,2.048-3.81c0-2.568-2.188-4.658-4.876-4.658
					c-2.692,0-4.882,2.09-4.882,4.658c0,1.672,0.947,3.222,2.443,4.042c0.045,1.412,0.005,2.641-0.122,3.745
					c-0.234,2.019-0.578,4.026-0.802,5.241c-3.916,0.718-7.513,2.604-10.224,5.358c-1.023-0.391-2.083-0.837-3.021-1.285
					c-1.76-0.867-3.422-1.912-4.218-2.431c-0.559-2.137-2.57-3.662-4.878-3.662c-2.763,0-5.013,2.147-5.013,4.785
					s2.248,4.785,5.013,4.785c0.055,0,0.112,0,0.172-0.002c0.025,0.01,0.05,0.019,0.075,0.025c0.026,0.007,2.692,0.713,5.184,1.926
					c0.885,0.435,1.843,0.97,2.88,1.589c-0.889,2.104-1.358,4.321-1.358,6.61c0,3.625,1.127,7.092,3.243,10.07
					c-0.097,0.111-0.186,0.222-0.304,0.333c-0.813,0.804-1.889,1.722-3.283,2.805c-0.115-0.016-0.234-0.023-0.358-0.023
					c-2.461,0-4.463,1.912-4.463,4.26c0,2.351,2.002,4.263,4.463,4.263c2.459,0,4.46-1.912,4.46-4.263
					c0-0.465-0.079-0.909-0.24-1.349c0.678-1.019,1.293-1.793,1.921-2.421c0.183-0.185,0.398-0.346,0.607-0.513
					c2.561,2.278,5.682,3.822,9.086,4.486c0.184,0.501,0.502,1.546,0.502,2.772c0,0.992-0.073,2.234-0.209,3.607
					c-1.69,1.104-2.729,2.97-2.729,4.938c0,3.321,2.824,6.021,6.296,6.021c3.469,0,6.291-2.702,6.291-6.021
					c0-2.019-1.075-3.914-2.824-5.013c-0.192-1.478-0.289-2.722-0.289-3.701c0-0.804,0.224-1.681,0.644-2.601
					c8.806-1.687,15.167-9.053,15.167-17.65c0-0.809-0.068-1.574-0.179-2.302c1.577-1.195,3.125-2.123,4.597-2.737
					c2.444-0.992,5.246-1.159,6.138-1.187c1.054,0.695,2.286,1.063,3.576,1.063c3.471,0,6.294-2.692,6.294-6.001
					C2284.313,527.86,2281.49,525.16,2278.019,525.16z M2278.019,535.987c-1.11,0-2.166-0.332-3.053-0.958
					c-0.104-0.074-0.241-0.109-0.354-0.11c-0.627,0.011-3.9,0.12-6.759,1.281c-1.66,0.694-3.392,1.737-5.145,3.098
					c-0.024,0.018-0.036,0.044-0.055,0.064c-0.029,0.03-0.058,0.058-0.081,0.094c-0.021,0.033-0.032,0.07-0.047,0.106
					c-0.013,0.035-0.027,0.068-0.034,0.104c-0.007,0.043-0.004,0.086-0.002,0.13c0.001,0.027-0.006,0.052-0.001,0.08
					c0.14,0.761,0.21,1.591,0.21,2.467c0,8.122-6.098,15.081-14.5,16.546c-0.017,0.002-0.03,0.013-0.047,0.018
					c-0.037,0.01-0.07,0.025-0.105,0.041c-0.036,0.018-0.07,0.035-0.101,0.058c-0.027,0.021-0.051,0.048-0.075,0.074
					c-0.029,0.031-0.055,0.063-0.076,0.099c-0.008,0.013-0.02,0.021-0.027,0.036c-0.582,1.181-0.877,2.319-0.877,3.381
					c0,1.109,0.11,2.465,0.336,4.145c0.025,0.185,0.136,0.348,0.298,0.44c1.528,0.859,2.477,2.44,2.477,4.128
					c0,2.662-2.286,4.828-5.098,4.828c-2.814,0-5.104-2.166-5.104-4.828c0-1.646,0.92-3.206,2.401-4.071
					c0.163-0.095,0.272-0.264,0.292-0.452c0.112-1.066,0.246-2.63,0.246-4.022c0-1.732-0.542-3.133-0.707-3.522
					c-0.008-0.019-0.024-0.031-0.033-0.049c-0.02-0.037-0.043-0.07-0.07-0.101c-0.024-0.027-0.049-0.051-0.076-0.074
					c-0.031-0.025-0.063-0.045-0.099-0.064c-0.035-0.018-0.069-0.031-0.106-0.042c-0.02-0.006-0.037-0.019-0.058-0.023
					c-3.483-0.618-6.669-2.209-9.213-4.603c-0.016-0.014-0.035-0.019-0.052-0.032c-0.032-0.025-0.064-0.045-0.1-0.062
					c-0.035-0.017-0.069-0.03-0.106-0.039c-0.037-0.01-0.073-0.016-0.111-0.018s-0.075-0.002-0.113,0.002
					c-0.037,0.005-0.073,0.013-0.109,0.025c-0.038,0.012-0.074,0.027-0.108,0.048c-0.018,0.01-0.038,0.012-0.055,0.025
					c-0.404,0.286-0.78,0.605-1.115,0.945c-0.737,0.737-1.449,1.646-2.241,2.863c-0.063,0.097-0.096,0.23-0.096,0.346
					c0,0.085,0.018,0.168,0.052,0.246c0.172,0.382,0.255,0.76,0.255,1.157c0,1.693-1.466,3.07-3.267,3.07
					c-1.803,0-3.271-1.378-3.271-3.07c0-1.691,1.467-3.068,3.271-3.068c0.131,0,0.25,0.014,0.346,0.041
					c0.181,0.051,0.376,0.013,0.526-0.101c0.982-0.755,2.424-1.895,3.597-3.056c0.208-0.194,0.389-0.407,0.561-0.611l0.124-0.147
					c0.012-0.014,0.015-0.032,0.026-0.048c0.024-0.033,0.043-0.067,0.059-0.104c0.015-0.035,0.027-0.069,0.037-0.106
					c0.008-0.037,0.012-0.073,0.013-0.111c0.001-0.039,0-0.075-0.006-0.115c-0.006-0.037-0.017-0.072-0.029-0.106
					c-0.013-0.038-0.03-0.073-0.051-0.107c-0.01-0.017-0.012-0.035-0.024-0.05c-2.148-2.858-3.283-6.232-3.283-9.758
					c0-2.298,0.488-4.525,1.45-6.618c0.012-0.026,0.01-0.054,0.019-0.081c0.012-0.039,0.025-0.076,0.027-0.117
					c0.004-0.039-0.001-0.075-0.005-0.113c-0.004-0.038-0.007-0.074-0.018-0.111c-0.011-0.037-0.029-0.07-0.048-0.104
					c-0.018-0.033-0.033-0.066-0.057-0.095c-0.025-0.031-0.056-0.055-0.087-0.08c-0.023-0.019-0.037-0.043-0.062-0.057
					c-1.249-0.76-2.363-1.379-3.409-1.893c-2.348-1.143-4.767-1.834-5.301-1.98c-0.135-0.093-0.317-0.125-0.479-0.097
					c-0.051,0.008-0.113,0.006-0.174,0.006c-2.106,0-3.82-1.611-3.82-3.593s1.714-3.593,3.82-3.593c1.833,0,3.417,1.243,3.768,2.957
					c0.031,0.155,0.124,0.291,0.255,0.378c0.706,0.468,2.562,1.659,4.551,2.638c1.381,0.658,2.644,1.159,3.465,1.465
					c0.002,0,0.006,0.002,0.008,0.002c0.019,0.007,0.039,0.004,0.058,0.01c0.05,0.013,0.099,0.027,0.149,0.027
					c0.003,0,0.007-0.002,0.011-0.002c0.055,0,0.105-0.017,0.156-0.031c0.024-0.007,0.049-0.007,0.072-0.018
					c0.074-0.032,0.141-0.078,0.197-0.138c2.656-2.826,6.298-4.733,10.256-5.37c0.017-0.002,0.029-0.013,0.045-0.017
					c0.045-0.011,0.086-0.026,0.128-0.048c0.026-0.013,0.051-0.026,0.075-0.043c0.036-0.025,0.067-0.057,0.097-0.091
					c0.019-0.021,0.039-0.039,0.055-0.063c0.025-0.036,0.04-0.078,0.056-0.12c0.011-0.027,0.025-0.052,0.031-0.081
					c0.001-0.005,0.005-0.01,0.006-0.016c0.218-1.153,0.623-3.429,0.889-5.718c0.144-1.257,0.183-2.657,0.116-4.281
					c-0.01-0.225-0.146-0.426-0.351-0.519c-1.262-0.57-2.078-1.796-2.078-3.124c0-1.911,1.654-3.465,3.689-3.465
					c2.031,0,3.683,1.554,3.683,3.465c0,1.213-0.626,2.286-1.719,2.948c-0.154,0.093-0.258,0.25-0.281,0.429
					c-0.128,0.924-0.402,3.305-0.203,5.416c0.173,1.737,0.492,3.398,0.782,4.795c0.001,0.006,0.006,0.011,0.007,0.017
					c0.011,0.045,0.032,0.083,0.052,0.124c0.014,0.029,0.024,0.061,0.043,0.087c0.026,0.037,0.063,0.064,0.098,0.094
					c0.023,0.02,0.041,0.043,0.067,0.06c0.038,0.024,0.082,0.036,0.125,0.051c0.031,0.011,0.058,0.025,0.091,0.031
					c0.007,0.001,0.014,0.006,0.023,0.007c4.572,0.618,8.656,2.857,11.5,6.304c0.118,0.143,0.289,0.217,0.46,0.217
					c0.001,0,0.004-0.001,0.005-0.001c0.001,0,0.002,0.001,0.003,0.001c1.597-0.025,4.157-0.149,6.549-0.423
					c2.836-0.321,5.592-1.137,6.769-1.485c0.194-0.057,0.347-0.21,0.403-0.406c0.605-2.079,2.62-3.529,4.903-3.529
					c2.813,0,5.101,2.165,5.101,4.827C2283.12,533.831,2280.832,535.987,2278.019,535.987z"/>
				<path fill="#EB001B" d="M2271.582,551.269c-2.258,0-4.094,1.754-4.094,3.912c0,2.156,1.837,3.911,4.094,3.911
					c2.256,0,4.09-1.755,4.09-3.911C2275.67,553.024,2273.836,551.269,2271.582,551.269z M2271.582,557.899
					c-1.601,0-2.902-1.219-2.902-2.718s1.301-2.719,2.902-2.719c1.597,0,2.897,1.22,2.897,2.719S2273.179,557.899,2271.582,557.899z
					"/>
			</g>
		</g>
	</g>
</g>
<g>
	<g>
		<g>
			<g>
				<g>
					<g>
						<path fill="#EB001B" d="M1373.771,263.371c-0.268,0-0.537-0.097-0.748-0.29c-1.155-1.055-28.284-26.019-28.082-41.494
							c0.056-4.265,1.842-8.26,5.03-11.249c3.184-2.986,7.417-4.631,11.919-4.631c4.453,0,8.72,1.651,11.881,4.563
							c3.16-2.912,7.427-4.563,11.88-4.563c4.801,0,9.409,1.903,12.643,5.22c2.879,2.954,4.408,6.755,4.307,10.703
							c-0.404,15.628-26.946,40.399-28.076,41.446C1374.312,263.272,1374.042,263.371,1373.771,263.371z M1361.891,207.924
							c-8.024,0-14.633,6.142-14.731,13.691c-0.171,13.123,22.182,34.937,26.607,39.123c4.361-4.186,26.274-25.865,26.618-39.166
							c0.087-3.345-1.22-6.576-3.679-9.098c-2.818-2.892-6.847-4.55-11.054-4.55c-4.236,0-8.273,1.7-11.074,4.664
							c-0.21,0.222-0.501,0.347-0.806,0.347c-0.306,0-0.596-0.126-0.806-0.347C1370.164,209.624,1366.127,207.924,1361.891,207.924z
							"/>
					</g>
					<g>
						<path fill="#EB001B" d="M1373.773,246.495c-0.612,0-1.109-0.497-1.109-1.109v-22.902c0-0.612,0.497-1.109,1.109-1.109
							s1.109,0.497,1.109,1.109v22.902C1374.882,245.999,1374.385,246.495,1373.773,246.495z"/>
					</g>
					<g>
						<path fill="#EB001B" d="M1385.224,235.045h-22.902c-0.612,0-1.109-0.497-1.109-1.109s0.497-1.109,1.109-1.109h22.902
							c0.612,0,1.109,0.497,1.109,1.109S1385.836,235.045,1385.224,235.045z"/>
					</g>
				</g>
			</g>
		</g>
	</g>
</g>
<g>
	<g>
		<path fill="#EB001B" d="M1765.267,554.366v4.5c0,1.105,0.896,2,2,2c1.105,0,2-0.895,2-2v-4.5
			c0.027-8.339,6.81-15.078,15.149-15.05c6.452,0.021,12.178,4.14,14.251,10.25c-3.839,3.602-6.012,8.636-6,13.9v4.5
			c0,1.105,0.895,2,2,2s2-0.895,2-2v-4.5c-0.678-8.312,5.51-15.6,13.822-16.278s15.6,5.51,16.278,13.822
			c0.067,0.817,0.067,1.638,0,2.456v4.5c0,1.105,0.896,2,2,2c1.105,0,2-0.895,2-2v-4.5c0.012-5.264-2.161-10.298-6-13.9
			c2.831-7.844,11.485-11.909,19.329-9.078c5.873,2.119,9.836,7.635,9.971,13.878v4.5c0,1.105,0.895,2,2,2c1.104,0,2-0.895,2-2v-4.5
			c-0.043-7.65-4.647-14.536-11.7-17.5c5.543-4.115,6.702-11.944,2.587-17.487s-11.944-6.702-17.487-2.587
			s-6.702,11.944-2.587,17.487c0.731,0.985,1.603,1.856,2.587,2.587c-4.571,1.949-8.197,5.61-10.1,10.2l-2.3-1.2
			c5.543-4.115,6.702-11.944,2.587-17.487s-11.944-6.702-17.487-2.587s-6.702,11.944-2.587,17.487
			c0.731,0.985,1.603,1.856,2.587,2.587l-2.3,1.2c-1.903-4.59-5.529-8.251-10.1-10.2c5.543-4.115,6.702-11.944,2.587-17.487
			c-4.115-5.543-11.944-6.702-17.487-2.587c-5.543,4.115-6.702,11.944-2.587,17.487c0.731,0.985,1.603,1.856,2.587,2.587
			C1769.854,539.86,1765.293,546.74,1765.267,554.366z M1830.467,526.866c0-4.694,3.806-8.5,8.5-8.5c4.694,0,8.5,3.806,8.5,8.5
			c0,4.694-3.806,8.5-8.5,8.5C1834.273,535.366,1830.467,531.56,1830.467,526.866L1830.467,526.866z M1803.167,535.966
			c-0.055-4.694,3.705-8.544,8.399-8.599s8.544,3.705,8.599,8.399c0.055,4.694-3.705,8.544-8.399,8.599
			c-0.033,0-0.066,0.001-0.099,0.001C1807.011,544.366,1803.222,540.621,1803.167,535.966z M1775.867,526.866
			c0-4.694,3.806-8.5,8.5-8.5c4.694,0,8.5,3.806,8.5,8.5c0,4.694-3.806,8.5-8.5,8.5
			C1779.673,535.366,1775.867,531.56,1775.867,526.866L1775.867,526.866z"/>
	</g>
</g>
<path fill="none" stroke="#EB001B" stroke-width="2" stroke-miterlimit="10" d="M2189.403,934.726h-764.806
	c-7.509,0-13.597-6.088-13.597-13.597v-43.723c0-7.509,6.088-13.597,13.597-13.597h764.806c7.509,0,13.597,6.088,13.597,13.597
	v43.723C2203,928.639,2196.912,934.726,2189.403,934.726z"/>
<text transform="matrix(1 0 0 1 1551.1367 912.5527)" fill="#EB001B" font-family="'ProximaNova-Bold'" font-size="36.6021">Quiero recibir más información</text>
<g>
	<text transform="matrix(1 0 0 1 1580.0195 1136.7773)" fill="#666666" font-family="'ProximaNova-Bold'" font-size="49.2265">NUESTROS PLANES</text>
</g>
<rect x="1258.413" y="1251.5" fill="#000093" width="461.176" height="403"/>
<text transform="matrix(1 0 0 1 1324.9414 1401.7676)" fill="#FFFFFF" font-family="'AcuminConcept-CondensedLightItalic'" font-size="75.4483">WITH YOU</text>
<g>
	<text transform="matrix(1 0 0 1 1431.082 1471.6445)" fill="#FFFFFF" font-family="'Gotham-Medium'" font-size="36.1205">BASIC</text>
</g>
<path fill="#FFFFFF" d="M1610.198,1606.776h-242.395c-7.509,0-13.597-6.088-13.597-13.597v-25.126
	c0-7.509,6.088-13.597,13.597-13.597h242.395c7.509,0,13.597,6.088,13.597,13.597v25.126
	C1623.795,1600.688,1617.708,1606.776,1610.198,1606.776z"/>
<g>
	<text transform="matrix(1 0 0 1 1448.1667 1592.0889)" fill="#000093" font-family="'ProximaNova-Bold'" font-size="28.7264">+INFO</text>
</g>
<rect x="1894.411" y="1251.5" fill="#EB001B" width="461.176" height="403"/>
<text transform="matrix(1 0 0 1 1960.939 1395.2275)" fill="#FFFFFF" font-family="'AcuminConcept-CondensedLightItalic'" font-size="75.4483">WITH YOU</text>
<g>
	<text transform="matrix(1 0 0 1 2037.0283 1465.1055)" fill="#FFFFFF" font-family="'Gotham-Medium'" font-size="36.1205">PREMIUM</text>
</g>
<path fill="#FFFFFF" d="M2246.196,1600.236h-242.395c-7.509,0-13.597-6.088-13.597-13.597v-25.126
	c0-7.509,6.088-13.597,13.597-13.597h242.395c7.509,0,13.597,6.088,13.597,13.597v25.126
	C2259.793,1594.149,2253.706,1600.236,2246.196,1600.236z"/>
<g>
	<text transform="matrix(1 0 0 1 2084.165 1585.5488)" fill="#EB001B" font-family="'ProximaNova-Bold'" font-size="28.7264">+INFO</text>
</g>
<g>
	<text transform="matrix(1 0 0 1 1408.9016 1866.7734)"><tspan x="0" y="0" fill="#666666" font-family="'ProximaNova-Bold'" font-size="49.0124">¿Sabías que el 40% de las personas  </tspan><tspan x="-11.86" y="71.69" fill="#666666" font-family="'ProximaNova-Bold'" font-size="49.0124">sienten ansiedad por el aislamiento? </tspan></text>
</g>
<path fill="none" stroke="#EB001B" stroke-width="2" stroke-miterlimit="10" d="M2069.611,2059.068h-525.221
	c-7.509,0-13.597-6.088-13.597-13.597v-22.27c0-7.509,6.088-13.597,13.597-13.597h525.221c7.509,0,13.597,6.088,13.597,13.597v22.27
	C2083.208,2052.98,2077.12,2059.068,2069.611,2059.068z"/>
<text transform="matrix(1 0 0 1 1628.5372 2043.6023)" fill="#EB001B" font-family="'ProximaNova-Bold'" font-size="25.5298">Quiero recibir más información</text>
<g>
	<circle fill="#CCCCCC" cx="1767.467" cy="2124.967" r="13.467"/>
	<circle fill="#E6E6E6" cx="1810.041" cy="2124.967" r="13.467"/>
	<circle fill="#E6E6E6" cx="1853.533" cy="2124.967" r="13.467"/>
</g>
<rect x="847" y="2243.493" fill="#E6E6E6" width="1920" height="356.007"/>
<g>
	<rect x="899.139" y="2461.587" fill="none" width="1815.722" height="59.568"/>
	<text transform="matrix(1 0 0 1 915.6978 2474.1416)"><tspan x="0" y="0" fill="#444042" font-family="'ProximaNova-Medium'" font-size="15">Usted ha recibido esta comunicación ya  que ha adquirido productos comercializados por AXA Assistance Argentina SA o ha tenido contacto directo con nosotros, facilitándonos datos que nos permite brindarle, por este medio, información  sobre los productos que comercializamos AXA </tspan><tspan x="-14.699" y="20.987" fill="#444042" font-family="'ProximaNova-Medium'" font-size="15">Assistance Argentina SA  garantiza que no transferirá datos personales sensibles a terceros, salvo con su consentimiento específico. De acuerdo a lo establecido en la  Ley 25.326 art. 27 Inciso 3, usted podrá en cualquier momento solicitar el retiro o bloqueo de sus datos de nuestros bancos de </tspan><tspan x="535.237" y="41.975" fill="#444042" font-family="'ProximaNova-Medium'" font-size="15">datos.  Para dejar de recibir estos mensajes, envíenos un correo electrónico a desuscripcion@axa-assistance.com.ar</tspan></text>
</g>
<g>
	<g id="YbGCWp.tif">
		<g>
			<path fill="#666666" d="M2481.849,2306.333c11.704,0,23.409,0,35.113,0c0.104,0.05,0.202,0.124,0.311,0.148
				c3.251,0.707,5.146,3.034,5.147,6.347c0.003,11.066,0.004,22.133,0,33.199c-0.001,3.687-2.671,6.368-6.338,6.377
				c-2.96,0.007-5.921,0.002-8.881,0c-0.247,0-0.493-0.025-0.709-0.037c0-5.505,0-10.918,0-16.372c1.849,0,3.633,0.004,5.417-0.002
				c0.793-0.003,1.173-0.333,1.269-1.107c0.195-1.581,0.386-3.163,0.564-4.747c0.125-1.11-0.292-1.56-1.424-1.563
				c-1.245-0.004-2.49-0.001-3.736-0.001c-0.696,0-1.392,0-2.128,0c0-1.833-0.101-3.574,0.03-5.298
				c0.121-1.592,1.066-2.326,2.698-2.376c1.009-0.031,2.021-0.005,3.031-0.021c0.922-0.015,1.332-0.414,1.345-1.339
				c0.018-1.315,0.016-2.631,0.001-3.947c-0.011-0.958-0.379-1.342-1.329-1.339c-1.784,0.005-3.57-0.002-5.351,0.084
				c-3.653,0.177-6.708,2.72-7.4,6.327c-0.311,1.618-0.252,3.309-0.324,4.969c-0.041,0.954-0.007,1.911-0.007,2.941
				c-1.352,0-2.615-0.003-3.878,0.001c-1.042,0.004-1.454,0.405-1.454,1.449c0,1.409,0.027,2.819,0.035,4.228
				c0.009,1.531,0.218,1.743,1.753,1.743c1.165,0,2.33,0,3.496,0c0,5.521,0,10.934,0,16.366c-0.167,0.018-0.281,0.042-0.395,0.042
				c-5.474,0-10.949,0.024-16.423-0.014c-2.561-0.018-4.883-1.887-5.617-4.378c-0.105-0.355-0.21-0.71-0.314-1.065
				c0-11.704,0-23.409,0-35.113c0.057-0.149,0.135-0.293,0.169-0.448c0.546-2.52,2.087-4.099,4.541-4.82
				C2481.323,2306.488,2481.586,2306.41,2481.849,2306.333z"/>
		</g>
	</g>
	<g id="u8ntBm.tif">
		<g>
			<path fill="#666666" d="M2534.62,2340.546c0-7.705,0-15.409,0-23.114c0.077-0.484,0.128-0.973,0.235-1.45
				c1.206-5.364,4.453-8.802,9.753-10.274c0.691-0.192,1.415-0.261,2.124-0.387c7.705,0,15.409,0,23.114,0
				c0.15,0.028,0.298,0.065,0.449,0.082c1.294,0.142,2.561,0.429,3.734,0.984c5.085,2.404,7.826,6.43,7.905,12.06
				c0.098,7.025,0.029,14.052,0.021,21.079c-0.003,2.723-0.736,5.246-2.318,7.466c-2.683,3.763-6.376,5.65-10.996,5.662
				c-6.903,0.018-13.806,0.013-20.709-0.006c-0.889-0.002-1.799-0.05-2.663-0.24c-5.36-1.183-8.788-4.443-10.259-9.734
				C2534.815,2341.982,2534.746,2341.256,2534.62,2340.546z M2577.76,2328.997c0-3.42,0.002-6.84-0.001-10.26
				c-0.001-1.083-0.108-2.152-0.473-3.181c-1.337-3.764-4.579-6.031-8.672-6.036c-6.886-0.009-13.773-0.022-20.659,0.019
				c-1.031,0.006-2.108,0.148-3.081,0.474c-3.785,1.271-6.048,4.552-6.054,8.64c-0.01,6.886-0.005,13.773,0,20.659
				c0,1.067,0.118,2.119,0.481,3.133c1.336,3.729,4.547,6.001,8.594,6.011c6.933,0.018,13.865,0.013,20.798,0.001
				c3.103-0.005,5.606-1.249,7.438-3.769c1.163-1.6,1.634-3.423,1.632-5.385C2577.756,2335.868,2577.76,2332.432,2577.76,2328.997z"
				/>
			<path fill="#666666" d="M2570.487,2328.996c-0.008,6.706-5.527,12.215-12.216,12.193c-6.716-0.022-12.218-5.545-12.181-12.228
				c0.036-6.707,5.502-12.163,12.193-12.17C2564.979,2316.783,2570.495,2322.299,2570.487,2328.996z M2558.279,2336.98
				c4.398,0.013,7.987-3.569,7.999-7.982c0.012-4.398-3.568-7.987-7.982-7.999c-4.399-0.012-7.987,3.567-7.999,7.982
				C2550.285,2333.379,2553.865,2336.967,2558.279,2336.98z"/>
			<path fill="#666666" d="M2571.066,2313.248c1.693,0.048,3.063,1.462,3.012,3.109c-0.054,1.735-1.476,3.078-3.195,3.02
				c-1.652-0.056-3.012-1.483-2.966-3.111C2567.967,2314.552,2569.377,2313.2,2571.066,2313.248z"/>
		</g>
	</g>
	<g id="luHpHD_1_">
		<g>
			<path fill="#666666" d="M2628.075,2305.355c4.761,0,9.523-0.038,14.283,0.014c2.981,0.032,5.962,0.182,8.941,0.315
				c1.066,0.048,2.135,0.153,3.19,0.316c2.576,0.397,4.02,2.163,5.029,4.363c0.934,2.037,1.461,4.202,1.726,6.421
				c0.217,1.825,0.454,3.656,0.52,5.49c0.136,3.794,0.322,7.598,0.192,11.388c-0.135,3.943-0.48,7.902-1.645,11.709
				c-0.671,2.194-1.622,4.262-3.675,5.584c-1.287,0.828-2.757,0.927-4.197,1.01c-3.27,0.188-6.544,0.336-9.819,0.383
				c-7.034,0.101-14.07,0.134-21.105,0.183c-2.187,0.015-4.375,0.027-6.561-0.02c-2.684-0.058-5.369-0.148-8.05-0.286
				c-1.631-0.084-3.257-0.281-4.885-0.433c-2.307-0.215-3.789-1.621-4.922-3.481c-1.096-1.8-1.534-3.837-1.933-5.868
				c-0.584-2.972-0.92-5.974-0.903-9.01c0.021-3.506-0.089-7.017,0.072-10.516c0.171-3.718,0.449-7.449,1.699-11.01
				c0.569-1.619,1.297-3.156,2.548-4.39c1.198-1.18,2.718-1.514,4.303-1.652C2611.269,2305.136,2619.675,2305.349,2628.075,2305.355
				z M2620.983,2328.848c0.001,0,0.002,0,0.002,0c0,3.986-0.003,7.972,0.009,11.958c0,0.226,0.062,0.518,0.21,0.653
				c0.094,0.085,0.437-0.009,0.608-0.117c2.245-1.426,4.481-2.866,6.715-4.309c3.856-2.492,7.707-4.992,11.566-7.48
				c0.843-0.543,0.856-0.775,0.001-1.329c-6.065-3.934-12.13-7.869-18.201-11.793c-0.208-0.135-0.489-0.157-0.736-0.231
				c-0.058,0.23-0.166,0.46-0.167,0.69C2620.98,2320.876,2620.983,2324.862,2620.983,2328.848z"/>
		</g>
	</g>
	<g>
		<text transform="matrix(1 0 0 1 2246.0527 2340.9053)" fill="#666666" font-family="'ProximaNova-Regular'" font-size="32.5227">SEGUINOS EN</text>
	</g>
</g>
<g>
	<g>
		<path fill="#EB001B" d="M1373.773,498.5c-5.384,0-10.469,1.321-14.938,3.656c-0.984,0.509-1.369,1.719-0.859,2.703
			s1.719,1.368,2.703,0.859c3.914-2.046,8.364-3.219,13.094-3.219s9.179,1.173,13.094,3.219c0.984,0.509,2.194,0.124,2.703-0.859
			s0.124-2.194-0.859-2.703C1384.243,499.821,1379.157,498.5,1373.773,498.5z M1345.773,500.5c-4.947,0-9,4.053-9,9
			c0,1.953,0.779,3.648,1.844,5.125c-5.271,2.995-8.844,8.925-8.844,15.875c0,1.105,0.896,2,2,2h28c1.104,0,2-0.895,2-2
			c0-6.95-3.573-12.88-8.844-15.875c1.064-1.477,1.844-3.172,1.844-5.125C1354.773,504.553,1350.72,500.5,1345.773,500.5z
			 M1401.773,500.5c-4.947,0-9,4.053-9,9c0,1.953,0.779,3.648,1.844,5.125c-5.271,2.995-8.844,8.925-8.844,15.875
			c0,1.105,0.896,2,2,2h28c1.104,0,2-0.895,2-2c0-6.95-3.573-12.88-8.844-15.875c1.064-1.477,1.844-3.172,1.844-5.125
			C1410.773,504.553,1406.72,500.5,1401.773,500.5z M1345.773,504.5c2.785,0,5,2.215,5,5c0,1.679-0.823,3.15-2.094,4.063
			c-0.905,0.633-1.125,1.881-0.492,2.786c0.243,0.347,0.59,0.608,0.992,0.746c4.329,1.483,7.617,5.887,8.313,11.406h-23.438
			c0.696-5.519,3.983-9.923,8.313-11.406c1.045-0.357,1.603-1.494,1.246-2.54c-0.137-0.401-0.398-0.748-0.746-0.992
			c-1.271-0.913-2.094-2.383-2.094-4.063C1340.773,506.715,1342.988,504.5,1345.773,504.5z M1401.773,504.5c2.785,0,5,2.215,5,5
			c0,1.679-0.823,3.15-2.094,4.063c-0.905,0.633-1.125,1.881-0.492,2.786c0.243,0.347,0.59,0.608,0.992,0.746
			c4.329,1.483,7.617,5.887,8.313,11.406h-23.438c0.696-5.519,3.983-9.923,8.313-11.406c1.045-0.357,1.603-1.494,1.246-2.54
			c-0.137-0.401-0.398-0.748-0.746-0.992c-1.271-0.913-2.094-2.383-2.094-4.063C1396.773,506.715,1398.988,504.5,1401.773,504.5z
			 M1344.148,535.5c-1.104,0.038-1.968,0.964-1.93,2.068c0.005,0.135,0.023,0.269,0.055,0.401
			c1.835,8.097,6.694,15.04,13.344,19.563c0.915,0.621,2.16,0.383,2.781-0.531s0.383-2.16-0.531-2.781c0,0,0,0,0,0
			c-5.827-3.963-10.081-10.036-11.688-17.125C1345.982,536.138,1345.123,535.465,1344.148,535.5z M1403.148,535.5
			c-0.881,0.079-1.605,0.727-1.781,1.594c-1.606,7.089-5.86,13.162-11.688,17.125c-0.915,0.621-1.153,1.867-0.531,2.781
			s1.867,1.153,2.781,0.531l0,0c6.65-4.523,11.509-11.466,13.344-19.563c0.263-1.073-0.393-2.156-1.466-2.419
			C1403.592,535.496,1403.369,535.48,1403.148,535.5z M1373.773,540.5c-4.947,0-9,4.053-9,9c0,1.953,0.779,3.648,1.844,5.125
			c-5.271,2.995-8.844,8.925-8.844,15.875c0,1.105,0.896,2,2,2h28c1.104,0,2-0.895,2-2c0-6.95-3.573-12.88-8.844-15.875
			c1.064-1.477,1.844-3.172,1.844-5.125C1382.773,544.553,1378.72,540.5,1373.773,540.5z M1373.773,544.5c2.785,0,5,2.215,5,5
			c0,1.679-0.823,3.15-2.094,4.063c-0.905,0.633-1.125,1.881-0.492,2.786c0.243,0.347,0.59,0.608,0.992,0.746
			c4.329,1.483,7.617,5.887,8.313,11.406h-23.438c0.696-5.519,3.983-9.923,8.313-11.406c1.045-0.357,1.603-1.494,1.246-2.54
			c-0.137-0.401-0.398-0.748-0.746-0.992c-1.271-0.913-2.094-2.383-2.094-4.063C1368.773,546.715,1370.988,544.5,1373.773,544.5z"/>
	</g>
</g>
<g>
	<g>
		<text transform="matrix(1 0 0 1 2131.0576 -907.7959)"><tspan x="0" y="0" fill="#FFFFFF" font-family="'ProximaNova-Bold'" font-size="27.1582">  o completa el formulario para que nos  </tspan><tspan x="16.104" y="32.147" fill="#FFFFFF" font-family="'ProximaNova-Bold'" font-size="27.1582">pongamos en contacto a la brevedad</tspan></text>
	</g>
	<g>
		<g>
			<rect x="2150.136" y="-834.06" fill="none" width="429.046" height="267.13"/>
			<text transform="matrix(1 0 0 1 2150.1355 -819.0962)"><tspan x="0" y="0" fill="#FFFFFF" font-family="'ProximaNova-Bold'" font-size="22.435">Nombre </tspan><tspan x="0" y="86.271" fill="#FFFFFF" font-family="'ProximaNova-Bold'" font-size="22.435">Apellido</tspan><tspan x="0" y="164.542" fill="#FFFFFF" font-family="'ProximaNova-Bold'" font-size="22.435">Email</tspan><tspan x="0" y="246.814" fill="#FFFFFF" font-family="'ProximaNova-Bold'" font-size="22.435">Teléfono</tspan></text>
		</g>
		<rect x="2148.674" y="-804.303" opacity="0.79" fill="#FFFFFF" width="451.062" height="36.605"/>
		<rect x="2149.264" y="-719.212" opacity="0.79" fill="#FFFFFF" width="451.062" height="36.605"/>
		<rect x="2149.264" y="-640.122" opacity="0.79" fill="#FFFFFF" width="451.062" height="36.605"/>
		<rect x="2149.264" y="-559.67" opacity="0.79" fill="#FFFFFF" width="451.062" height="36.605"/>
		<rect x="2150.445" y="-483.642" opacity="0.79" fill="#FFFFFF" width="25.977" height="21.254"/>
		<g>
			<text transform="matrix(1 0 0 1 2187.0193 -478.5849)"><tspan x="0" y="0" fill="#FFFFFF" font-family="'ProximaNova-Medium'" font-size="14">Acepto recibir información promocional por</tspan><tspan x="0" y="16.271" fill="#FFFFFF" font-family="'ProximaNova-Medium'" font-size="14">parte de Axa Assistance Argentina SA.</tspan></text>
		</g>
		<path fill="#EB001B" d="M2586.667-393.997h-423.806c-7.51,0-13.597-6.088-13.597-13.597v-9.411
			c0-7.509,6.087-13.597,13.597-13.597h423.806c7.509,0,13.597,6.088,13.597,13.597v9.411
			C2600.264-400.085,2594.177-393.997,2586.667-393.997z"/>
		<text transform="matrix(1 0 0 1 2340.7859 -405.4424)" fill="#FFFFFF" font-family="'ProximaNova-Bold'" font-size="18.8927">ENVIAR</text>
	</g>
	<text transform="matrix(1 0 0 1 2208.6055 -962.4346)" fill="#FFFFFF" font-family="'ProximaNova-Bold'" font-size="45.52">0800-222-0365</text>
	<text transform="matrix(1 0 0 1 2286.1147 -1013.1011)" fill="#FFFFFF" font-family="'ProximaNova-Bold'" font-size="27.1582">Comunicate al</text>
</g>
<g>
	<rect id="base" x="1008.728" y="-1307.588" fill="#000093" width="126.42" height="126.42"/>
	<polygon id="switch" fill="#FF101C" points="1087.068,-1245.156 1135.148,-1307.589 1128.046,-1307.589 1079.807,-1245.156 	"/>
	<path id="axa" fill="#FFFFFF" d="M1105.325-1217.295c2.203,6.165,6.744,22.208,8.549,23.486h-11.92c0,0-0.043-2.369-0.559-4.207
		c-0.514-1.834-4.826-15.705-4.826-15.705h-18.935l-2.977,4.22c0,0,3.576,11.193,3.798,11.742c0.385,0.989,2.093,3.95,2.093,3.95
		h-11.424c0,0-0.296-1.709-0.407-2.422c-0.089-0.575-1.082-3.724-1.082-3.724s-2.589,2.837-3.295,4.153
		c-0.712,1.313-1.028,1.992-1.028,1.992h-8.937c0,0-0.298-1.709-0.409-2.422c-0.087-0.575-1.18-3.976-1.18-3.976
		s-2.502,3.038-3.214,4.351c-0.708,1.315-1.013,2.047-1.013,2.047h-8.839c0,0,2.498-2.378,3.371-3.399
		c1.472-1.731,6.958-8.9,6.958-8.9l-2.199-7.613h-18.791c0,0-10.714,14.078-11.136,14.514c-0.427,0.429-3.55,4.911-3.619,5.398
		h-5.575v-3.545c0.107-0.109,0.183-0.187,0.22-0.213c0.172-0.126,8.123-9.995,15.426-19.727c6.563-8.486,12.722-16.74,13.262-17.526
		c1.309-1.901,3.195-6.006,3.195-6.006h9.714c0,0,0.301,3.776,0.584,4.693c0.252,0.81,6.171,20.23,6.311,20.439l3.273-4.185
		l-5.594-17.221c0,0-1.311-3.24-1.738-3.726h11.348c0,0-0.089,1.666,0.37,3.086c0.462,1.42,2.894,10.198,2.894,10.198
		s7.739-9.701,8.192-10.398c0.851-1.169,0.956-2.885,0.956-2.885h9.455c0,0-1.731,1.265-4.765,5.102
		c-1.019,1.291-11.004,13.981-11.004,13.981s0.871,2.97,1.296,4.449c0.115,0.425,0.196,0.712,0.196,0.743
		c0,0.013,0.22-0.257,0.599-0.743c2.576-3.264,14.294-18.63,15.004-19.945c0.573-1.063,1.415-2.271,1.91-3.586h9.224
		c0,0,0.213,2.755,0.494,3.517L1105.325-1217.295z M1091.288-1231.84c-1.354,2.914-9.327,12.62-9.327,12.62h12.626
		c0,0-2.448-7.537-2.874-9.235c-0.34-1.352-0.248-3.092-0.248-3.301C1091.464-1231.911,1091.436-1232.162,1091.288-1231.84z
		 M1042.776-1231.84c-1.354,2.914-9.327,12.62-9.327,12.62h12.626c0,0-2.445-7.537-2.872-9.235c-0.34-1.352-0.248-3.092-0.248-3.301
		C1042.955-1231.911,1042.925-1232.162,1042.776-1231.84z M1061.785-1202.411l3.475-4.773c-0.32-0.344-2.278-6.28-2.278-6.28
		l-3.36,4.359L1061.785-1202.411z"/>
</g>
<g>
	<rect id="base_1_" x="991.277" y="2269.535" fill="#000093" width="118.917" height="118.917"/>
	<polygon id="switch_1_" fill="#FF101C" points="1064.967,2328.261 1110.194,2269.534 1103.514,2269.534 1058.138,2328.261 	"/>
	<path id="axa_1_" fill="#FFFFFF" d="M1082.141,2354.469c2.073,5.799,6.344,20.89,8.042,22.092h-11.213c0,0-0.041-2.229-0.526-3.958
		c-0.484-1.725-4.539-14.773-4.539-14.773h-17.811l-2.8,3.97c0,0,3.363,10.529,3.572,11.045c0.363,0.93,1.969,3.716,1.969,3.716
		h-10.746c0,0-0.279-1.608-0.383-2.278c-0.084-0.541-1.018-3.503-1.018-3.503s-2.436,2.669-3.099,3.906
		c-0.67,1.235-0.967,1.874-0.967,1.874h-8.407c0,0-0.281-1.608-0.385-2.278c-0.082-0.541-1.11-3.74-1.11-3.74
		s-2.354,2.857-3.023,4.093c-0.666,1.237-0.953,1.926-0.953,1.926h-8.314c0,0,2.349-2.237,3.171-3.198
		c1.385-1.629,6.545-8.372,6.545-8.372l-2.069-7.161H1010.4c0,0-10.078,13.243-10.475,13.653c-0.401,0.404-3.339,4.619-3.405,5.078
		h-5.244v-3.335c0.1-0.103,0.172-0.176,0.207-0.201c0.162-0.119,7.641-9.402,14.511-18.557c6.174-7.983,11.967-15.746,12.475-16.486
		c1.231-1.788,3.005-5.649,3.005-5.649h9.138c0,0,0.283,3.552,0.549,4.414c0.237,0.762,5.805,19.03,5.936,19.226l3.079-3.937
		l-5.262-16.199c0,0-1.233-3.048-1.635-3.505h10.674c0,0-0.084,1.567,0.348,2.903c0.434,1.336,2.722,9.593,2.722,9.593
		s7.28-9.126,7.706-9.781c0.801-1.1,0.899-2.714,0.899-2.714h8.894c0,0-1.628,1.19-4.482,4.799
		c-0.959,1.215-10.351,13.151-10.351,13.151s0.82,2.794,1.219,4.185c0.109,0.399,0.184,0.67,0.184,0.698
		c0,0.012,0.207-0.242,0.563-0.698c2.423-3.071,13.446-17.524,14.114-18.761c0.539-1,1.331-2.136,1.796-3.374h8.677
		c0,0,0.201,2.591,0.465,3.308L1082.141,2354.469z M1068.937,2340.787c-1.274,2.741-8.773,11.871-8.773,11.871h11.877
		c0,0-2.302-7.09-2.704-8.687c-0.32-1.272-0.234-2.909-0.234-3.105C1069.103,2340.72,1069.076,2340.484,1068.937,2340.787z
		 M1023.304,2340.787c-1.274,2.741-8.773,11.871-8.773,11.871h11.877c0,0-2.3-7.09-2.702-8.687c-0.32-1.272-0.234-2.909-0.234-3.105
		C1023.472,2340.72,1023.444,2340.484,1023.304,2340.787z M1041.185,2368.469l3.269-4.49c-0.301-0.323-2.143-5.907-2.143-5.907
		l-3.161,4.101L1041.185,2368.469z"/>
</g>
<g>
	<g id="XMLID_45_">
		<rect x="2509.653" y="-1290.832" fill="#FF5F00" width="35.77" height="64.281"/>
		<path id="XMLID_49_" fill="#EB001B" d="M2511.924-1258.692c0-13.041,6.106-24.655,15.614-32.14
			c-6.954-5.474-15.728-8.74-25.264-8.74c-22.576,0-40.877,18.303-40.877,40.881c0,22.577,18.302,40.88,40.877,40.88
			c9.536,0,18.31-3.266,25.264-8.74C2518.03-1234.037,2511.924-1245.651,2511.924-1258.692z"/>
		<path fill="#F79E1B" d="M2593.68-1258.692c0,22.577-18.302,40.88-40.878,40.88c-9.536,0-18.31-3.266-25.264-8.74
			c9.508-7.486,15.614-19.1,15.614-32.14s-6.106-24.655-15.614-32.14c6.954-5.474,15.728-8.74,25.264-8.74
			C2575.378-1299.573,2593.68-1281.27,2593.68-1258.692z M2589.78-1233.36v-1.316h0.531v-0.268h-1.352v0.268h0.531v1.316H2589.78z
			 M2592.403-1233.36v-1.587h-0.414l-0.476,1.091l-0.477-1.091h-0.415v1.587h0.292v-1.197l0.447,1.032h0.303l0.447-1.034v1.199
			H2592.403z"/>
	</g>
	<path id="XMLID_3_" fill="#1D1D1B" d="M2479.751-1189.592v-7.391c0-2.784-1.774-4.656-4.632-4.681
		c-1.503-0.025-3.055,0.443-4.139,2.094c-0.813-1.306-2.094-2.094-3.893-2.094c-1.257,0-2.488,0.37-3.449,1.749v-1.454h-2.563
		v11.776h2.587v-6.529c0-2.045,1.133-3.129,2.883-3.129c1.7,0,2.562,1.109,2.562,3.104v6.553h2.587v-6.529
		c0-2.045,1.183-3.129,2.883-3.129c1.749,0,2.587,1.109,2.587,3.104v6.553H2479.751z M2518.036-1201.368h-4.188v-3.572h-2.587v3.572
		h-2.39v2.34h2.39v5.371c0,2.735,1.059,4.361,4.09,4.361c1.109,0,2.389-0.345,3.203-0.911l-0.739-2.193
		c-0.764,0.443-1.602,0.665-2.267,0.665c-1.281,0-1.7-0.789-1.7-1.971v-5.322h4.188V-1201.368z M2539.889-1201.664
		c-1.478,0-2.439,0.69-3.104,1.724v-1.429h-2.538v11.776h2.562v-6.603c0-1.946,0.838-3.03,2.513-3.03
		c0.517,0,1.059,0.074,1.601,0.296l0.788-2.414C2541.145-1201.565,2540.406-1201.664,2539.889-1201.664L2539.889-1201.664z
		 M2506.851-1200.432c-1.232-0.813-2.932-1.232-4.804-1.232c-2.981,0-4.903,1.429-4.903,3.769c0,1.922,1.429,3.104,4.065,3.474
		l1.208,0.172c1.404,0.197,2.069,0.566,2.069,1.232c0,0.912-0.936,1.429-2.685,1.429c-1.774,0-3.055-0.567-3.917-1.232l-1.207,1.995
		c1.404,1.035,3.178,1.528,5.1,1.528c3.4,0,5.371-1.602,5.371-3.843c0-2.07-1.552-3.154-4.114-3.523l-1.207-0.172
		c-1.109-0.148-1.996-0.369-1.996-1.158c0-0.862,0.837-1.38,2.242-1.38c1.503,0,2.956,0.567,3.671,1.01L2506.851-1200.432z
		 M2575.488-1201.664c-1.478,0-2.439,0.69-3.104,1.724v-1.429h-2.538v11.776h2.562v-6.603c0-1.946,0.838-3.03,2.513-3.03
		c0.518,0,1.06,0.074,1.602,0.296l0.788-2.414C2576.745-1201.565,2576.005-1201.664,2575.488-1201.664L2575.488-1201.664z
		 M2542.475-1195.48c0,3.572,2.489,6.184,6.282,6.184c1.774,0,2.956-0.394,4.237-1.404l-1.232-2.069
		c-0.961,0.69-1.971,1.059-3.08,1.059c-2.045-0.024-3.548-1.503-3.548-3.769c0-2.266,1.503-3.745,3.548-3.769
		c1.109,0,2.119,0.369,3.08,1.059l1.232-2.069c-1.281-1.01-2.464-1.404-4.237-1.404
		C2544.964-1201.664,2542.475-1199.052,2542.475-1195.48L2542.475-1195.48z M2566.471-1195.48v-5.888h-2.562v1.429
		c-0.813-1.059-2.045-1.724-3.72-1.724c-3.301,0-5.888,2.587-5.888,6.184c0,3.597,2.587,6.184,5.888,6.184
		c1.675,0,2.907-0.665,3.72-1.725v1.429h2.562V-1195.48z M2556.937-1195.48c0-2.069,1.355-3.769,3.573-3.769
		c2.119,0,3.548,1.626,3.548,3.769c0,2.143-1.429,3.769-3.548,3.769C2558.292-1191.711,2556.937-1193.411,2556.937-1195.48
		L2556.937-1195.48z M2526.018-1201.664c-3.449,0-5.863,2.513-5.863,6.184c0,3.745,2.513,6.184,6.036,6.184
		c1.774,0,3.4-0.444,4.829-1.651l-1.257-1.897c-0.985,0.788-2.242,1.232-3.424,1.232c-1.651,0-3.154-0.764-3.523-2.883h8.746
		c0.025-0.32,0.049-0.64,0.049-0.985C2531.586-1199.151,2529.32-1201.664,2526.018-1201.664L2526.018-1201.664z M2525.969-1199.373
		c1.651,0,2.71,1.035,2.981,2.858h-6.11C2523.111-1198.215,2524.146-1199.373,2525.969-1199.373L2525.969-1199.373z
		 M2590.245-1195.48v-10.618h-2.562v6.159c-0.813-1.059-2.045-1.724-3.72-1.724c-3.302,0-5.888,2.587-5.888,6.184
		c0,3.597,2.587,6.184,5.888,6.184c1.675,0,2.907-0.665,3.72-1.725v1.429h2.562V-1195.48z M2593.24-1190.679
		c0.105,0,0.204,0.02,0.296,0.058c0.092,0.039,0.173,0.093,0.242,0.16c0.069,0.068,0.123,0.147,0.163,0.238
		c0.04,0.091,0.06,0.188,0.06,0.29c0,0.103-0.02,0.199-0.06,0.29c-0.04,0.09-0.094,0.169-0.163,0.237
		c-0.069,0.068-0.15,0.121-0.242,0.161c-0.092,0.04-0.191,0.06-0.296,0.06c-0.107,0-0.208-0.02-0.301-0.06
		c-0.094-0.04-0.174-0.093-0.243-0.161c-0.068-0.068-0.123-0.147-0.162-0.237c-0.04-0.09-0.06-0.187-0.06-0.29
		c0-0.103,0.02-0.199,0.06-0.29c0.04-0.091,0.094-0.17,0.162-0.238c0.068-0.068,0.149-0.121,0.243-0.16
		C2593.032-1190.659,2593.132-1190.679,2593.24-1190.679z M2593.24-1189.349c0.081,0,0.156-0.015,0.225-0.046
		c0.07-0.031,0.131-0.072,0.183-0.125c0.053-0.052,0.094-0.114,0.124-0.185c0.03-0.071,0.045-0.146,0.045-0.227
		c0-0.08-0.015-0.156-0.045-0.227c-0.03-0.071-0.071-0.132-0.124-0.185c-0.052-0.052-0.114-0.094-0.183-0.123
		c-0.07-0.03-0.145-0.045-0.225-0.045c-0.082,0-0.158,0.015-0.23,0.045c-0.071,0.03-0.133,0.071-0.186,0.123
		c-0.052,0.053-0.094,0.114-0.124,0.185c-0.03,0.071-0.045,0.147-0.045,0.227c0,0.081,0.015,0.156,0.045,0.227
		c0.03,0.071,0.071,0.133,0.124,0.185s0.115,0.094,0.186,0.125C2593.081-1189.364,2593.158-1189.349,2593.24-1189.349z
		 M2593.284-1190.281c0.089,0,0.158,0.02,0.206,0.06c0.048,0.04,0.072,0.094,0.072,0.162c0,0.057-0.019,0.105-0.058,0.142
		c-0.038,0.037-0.093,0.06-0.164,0.069l0.227,0.262h-0.177l-0.211-0.26h-0.068v0.26h-0.148v-0.694H2593.284z M2593.112-1190.151
		v0.185h0.17c0.039,0,0.07-0.008,0.094-0.023c0.023-0.015,0.035-0.039,0.035-0.07c0-0.031-0.012-0.053-0.035-0.069
		c-0.023-0.015-0.054-0.023-0.094-0.023H2593.112z M2580.711-1195.48c0-2.069,1.355-3.769,3.572-3.769
		c2.119,0,3.548,1.626,3.548,3.769c0,2.143-1.429,3.769-3.548,3.769C2582.066-1191.711,2580.711-1193.411,2580.711-1195.48
		L2580.711-1195.48z M2494.188-1195.48v-5.888h-2.562v1.429c-0.813-1.059-2.045-1.724-3.72-1.724c-3.301,0-5.888,2.587-5.888,6.184
		c0,3.597,2.587,6.184,5.888,6.184c1.675,0,2.907-0.665,3.72-1.725v1.429h2.562V-1195.48z M2484.654-1195.48
		c0-2.069,1.355-3.769,3.572-3.769c2.119,0,3.548,1.626,3.548,3.769c0,2.143-1.429,3.769-3.548,3.769
		C2486.009-1191.711,2484.654-1193.411,2484.654-1195.48z"/>
</g>
<text transform="matrix(1 0 0 1 1834.501 292.751)" font-family="'MyriadPro-Regular'" font-size="12">Lorem ipsum</text>
</svg>
