<?xml version="1.0" encoding="utf-8"?>
<!-- Generator: Adobe Illustrator 17.0.0, SVG Export Plug-In . SVG Version: 6.00 Build 0)  -->
<!DOCTYPE svg PUBLIC "-//W3C//DTD SVG 1.1//EN" "http://www.w3.org/Graphics/SVG/1.1/DTD/svg11.dtd">
<svg version="1.1" id="Capa_1" xmlns="http://www.w3.org/2000/svg" xmlns:xlink="http://www.w3.org/1999/xlink" x="0px" y="0px"
	 width="92.8px" height="57.665px" viewBox="0 0 92.8 57.665" enable-background="new 0 0 92.8 57.665" xml:space="preserve">
<rect x="861.233" y="-307" fill="#E6E6E6" width="1920" height="307"/>
<rect x="861.233" y="1019" fill="#E6E6E6" width="1920" height="484"/>
<g>
	<defs>
		<rect id="SVGID_1_" x="853.733" y="-1147" width="1942" height="884"/>
	</defs>
	<clipPath id="SVGID_2_">
		<use xlink:href="#SVGID_1_"  overflow="visible"/>
	</clipPath>
	<g clip-path="url(#SVGID_2_)">
		
			<image overflow="visible" width="8113" height="5410" xlink:href="66B86A20.jpg"  transform="matrix(0.2639 0 0 0.2656 512.7333 -1468.8722)">
		</image>
		<g>
			
				<image overflow="visible" width="8113" height="5410" xlink:href="66B86A21.jpg"  transform="matrix(-0.2639 0 0 0.2656 4794.4282 -1468.8722)">
			</image>
		</g>
	</g>
</g>
<g>
	
		<image overflow="visible" opacity="0.18" width="663" height="811" xlink:href="66B86A20.png"  transform="matrix(1 0 0 1 2058.7334 -1118)">
	</image>
	<g>
		<path fill="#000093" d="M2653.3-329.598h-528.133c-27.301,0-49.433-22.132-49.433-49.433v-674.659
			c0-27.301,22.132-49.433,49.433-49.433H2653.3c27.302,0,49.434,22.132,49.434,49.433v674.659
			C2702.733-351.73,2680.601-329.598,2653.3-329.598z"/>
	</g>
</g>
<g>
	<text transform="matrix(1 0 0 1 1694.3684 113.3975)" fill="#EB001B" font-family="'ProximaNova-Bold'" font-size="44.4639">BENEFICIOS</text>
</g>
<g>
	
		<text transform="matrix(1 0 0 1 1182.9834 -95.709)" fill="#000093" font-family="'AcuminConcept-CondensedLightItalic'" font-size="133.1263">WITH YOU</text>
	<text transform="matrix(1 0 0 1 1288.8799 -50.4844)" font-family="'Gotham-Medium'" font-size="23.9524">Con vos, para lo que necesites</text>
	<g>
		<rect x="1763.079" y="-142.523" fill="none" width="625.382" height="89.523"/>
		<text transform="matrix(1 0 0 1 1763.0797 -124.8076)"><tspan x="0" y="0" fill="#444042" font-family="'ProximaNova-Medium'" font-size="24.9514">Es un servicio pensado para escuchar tus necesidades de la </tspan><tspan x="0" y="32.876" fill="#444042" font-family="'ProximaNova-Medium'" font-size="24.9514">mano de profesionales que estarán a tu servicio.</tspan><tspan x="0" y="65.752" fill="#444042" font-family="'ProximaNova-Medium'" font-size="24.9514">Si tenés Mastercard, podrás tener With You.</tspan></text>
	</g>
</g>
<text transform="matrix(1 0 0 1 1290.0134 312.8027)" fill="#000093" font-family="'Gotham-Medium'" font-size="22">Apoyo Emocional</text>
<text transform="matrix(1 0 0 1 1707.0015 312.8027)" fill="#000093" font-family="'Gotham-Medium'" font-size="22">Asesoramiento Legal</text>
<text transform="matrix(1 0 0 1 2113.2212 312.8027)" fill="#000093" font-family="'Gotham-Medium'" font-size="22">Asesoramiento Financiero</text>
<text transform="matrix(1 0 0 1 1283.2925 610.5869)" fill="#000093" font-family="'Gotham-Medium'" font-size="22">Wellness Coaching</text>
<text transform="matrix(1 0 0 1 1711.9072 610.5869)" fill="#000093" font-family="'Gotham-Medium'" font-size="22">Corporate Coaching</text>
<text transform="matrix(1 0 0 1 2155.8784 610.5869)" fill="#000093" font-family="'Gotham-Medium'" font-size="22">Información Covid</text>
<g>
	<rect x="1231.213" y="333.924" fill="none" width="314.587" height="107.076"/>
	<text transform="matrix(1 0 0 1 1241.3446 347.4141)"><tspan x="0" y="0" fill="#444042" font-family="'ProximaNova-Medium'" font-size="19">Sesiones orientativas sobre ansiedad, </tspan><tspan x="13.119" y="28.986" fill="#444042" font-family="'ProximaNova-Medium'" font-size="19">depresión, incertidumbre, falta de </tspan><tspan x="29.497" y="57.974" fill="#444042" font-family="'ProximaNova-Medium'" font-size="19">sueño guiadas por psicólogos </tspan><tspan x="102.693" y="86.961" fill="#444042" font-family="'ProximaNova-Medium'" font-size="19">graduados.</tspan></text>
</g>
<g>
	<rect x="1676.724" y="333.924" fill="none" width="294.721" height="90.076"/>
	<text transform="matrix(1 0 0 1 1694.6196 347.4141)"><tspan x="0" y="0" fill="#444042" font-family="'ProximaNova-Medium'" font-size="19">Asesoría jurídica relacionada con </tspan><tspan x="13.224" y="28.986" fill="#444042" font-family="'ProximaNova-Medium'" font-size="19">situaciones de conflicto legal.</tspan></text>
</g>
<g>
	<rect x="2092.218" y="333.924" fill="none" width="331.917" height="107.076"/>
	<text transform="matrix(1 0 0 1 2096.4036 347.4141)"><tspan x="0" y="0" fill="#444042" font-family="'ProximaNova-Medium'" font-size="19">Evaluación, diagnóstico y guía, asistencia </tspan><tspan x="0.542" y="28.986" fill="#444042" font-family="'ProximaNova-Medium'" font-size="19">personalizada sobre mejores alternativas </tspan><tspan x="24.272" y="57.974" fill="#444042" font-family="'ProximaNova-Medium'" font-size="19">para resolver consultas y conflictos </tspan><tspan x="116.392" y="86.961" fill="#444042" font-family="'ProximaNova-Medium'" font-size="19">financieros.</tspan></text>
</g>
<g>
	<rect x="1231.213" y="632.039" fill="none" width="314.587" height="90.076"/>
	<text transform="matrix(1 0 0 1 1234.7225 645.5291)"><tspan x="0" y="0" fill="#444042" font-family="'ProximaNova-Medium'" font-size="19">Brinda herramientas y ofrece una guías </tspan><tspan x="18.136" y="28.986" fill="#444042" font-family="'ProximaNova-Medium'" font-size="19">para que alcances tus objetivos de </tspan><tspan x="58.624" y="57.974" fill="#444042" font-family="'ProximaNova-Medium'" font-size="19">salud física y emocional.</tspan></text>
</g>
<g>
	<rect x="1663.579" y="632.039" fill="none" width="321.01" height="136.961"/>
	<text transform="matrix(1 0 0 1 1704.7848 645.5291)"><tspan x="0" y="0" fill="#444042" font-family="'ProximaNova-Medium'" font-size="19">Asesoramiento personalizado, </tspan><tspan x="9.538" y="28.986" fill="#444042" font-family="'ProximaNova-Medium'" font-size="19">metodología de las mejores </tspan><tspan x="-7.001" y="57.974" fill="#444042" font-family="'ProximaNova-Medium'" font-size="19">herramientas para potenciar tus </tspan><tspan x="-34.807" y="86.961" fill="#444042" font-family="'ProximaNova-Medium'" font-size="19">habilidades, mejorar la productividad y </tspan><tspan x="-9.053" y="115.948" fill="#444042" font-family="'ProximaNova-Medium'" font-size="19">liderar de la forma más eficiente.</tspan></text>
</g>
<g>
	<rect x="2110.816" y="632.039" fill="none" width="294.721" height="90.076"/>
	<text transform="matrix(1 0 0 1 2113.019 645.5291)" fill="#444042" font-family="'ProximaNova-Medium'" font-size="19">Consultas y tramitación de permisos.</text>
</g>
<path fill="#EB001B" d="M2241.602,251.771c0.436-1.525,0.871-3.158,1.307-4.683c0.545-1.851,1.089-2.069,2.723-1.198
	c2.832,1.525,5.881,2.287,8.931,2.723c2.069,0.218,4.03,0,5.881-0.762c3.485-1.525,4.03-5.554,1.089-8.059
	c-0.98-0.871-2.178-1.416-3.376-1.96c-3.05-1.307-6.317-2.396-9.148-4.139c-4.683-2.832-7.732-6.643-7.297-12.416
	c0.436-6.426,4.03-10.564,10.02-12.633c2.396-0.871,2.505-0.871,2.505-3.376c0-0.871,0-1.743,0-2.614
	c0-1.96,0.327-2.287,2.287-2.287c0.545,0,1.198,0,1.743,0c4.138,0,4.138,0,4.138,4.139c0,2.941,0,2.941,2.941,3.376
	c2.178,0.327,4.356,0.98,6.317,1.851c1.089,0.545,1.525,1.307,1.198,2.505c-0.544,1.743-0.98,3.594-1.525,5.337
	c-0.545,1.634-1.089,1.851-2.614,1.089c-3.158-1.525-6.535-2.178-10.129-1.96c-0.98,0-1.851,0.218-2.723,0.545
	c-3.05,1.307-3.594,4.683-0.98,6.752c1.307,1.089,2.832,1.851,4.356,2.505c2.723,1.089,5.445,2.178,7.95,3.594
	c8.168,4.574,10.346,14.812,4.574,21.782c-2.069,2.505-4.792,4.247-7.95,5.119c-1.416,0.327-1.96,1.089-1.96,2.505
	c0.109,1.416,0,2.832,0,4.247c0,1.307-0.654,1.96-1.852,1.96c-1.525,0-3.049,0-4.574,0c-1.307,0-1.96-0.762-1.96-2.069
	c0-0.98,0-2.069,0-3.049c0-2.287-0.109-2.396-2.287-2.723c-2.832-0.436-5.554-1.089-8.059-2.287
	C2241.275,254.384,2241.057,253.84,2241.602,251.771z"/>
<g>
	<g>
		<g>
			<path fill="#EB001B" d="M1814.253,234.763l-8.049-19.547c-0.23-0.575-0.805-0.92-1.38-1.035c-0.575,0-1.15,0.345-1.495,0.92
				l-9.314,19.662c-0.46,0.23-0.805,0.805-0.805,1.38c0,5.979,4.829,10.808,10.808,10.923c0,0,0,0,0.115,0h0.115c0,0,0,0,0.115,0
				c5.979-0.115,10.808-4.944,10.808-10.923C1815.058,235.568,1814.713,234.993,1814.253,234.763z M1804.709,219.7l6.094,14.833
				h-13.108L1804.709,219.7z M1804.134,243.847c-3.68,0-6.669-2.645-7.474-6.094h14.948
				C1810.918,241.202,1807.814,243.732,1804.134,243.847z"/>
			<path fill="#EB001B" d="M1844.263,267.648h-39.439c-0.92,0-1.61-0.69-1.61-1.61s0.69-1.61,1.61-1.61h39.439
				c0.92,0,1.61,0.69,1.61,1.61C1845.873,266.958,1845.183,267.648,1844.263,267.648z"/>
			<path fill="#EB001B" d="M1854.037,234.648l-8.049-19.547c-0.23-0.575-0.805-0.92-1.38-1.035c-0.575,0-1.15,0.345-1.495,0.92
				l-9.314,19.662c-0.46,0.23-0.805,0.805-0.805,1.38c0,5.979,4.829,10.808,10.808,10.923c0,0,0,0,0.115,0h0.115c0,0,0,0,0.115,0
				c5.979-0.115,10.808-4.944,10.808-10.923C1854.842,235.453,1854.497,234.878,1854.037,234.648z M1844.493,219.585l6.094,14.833
				h-13.108L1844.493,219.585z M1843.919,243.732c-3.68,0-6.669-2.645-7.474-6.094h14.948
				C1850.703,241.087,1847.598,243.617,1843.919,243.732z"/>
			<path fill="#EB001B" d="M1844.263,207.512h-14.718c-0.46-1.61-1.84-2.99-3.45-3.45v-4.024c0-0.92-0.69-1.61-1.495-1.61
				c-0.92,0-1.61,0.69-1.61,1.61v4.024c-1.61,0.575-2.875,1.84-3.334,3.449h-14.833c-0.92,0-1.61,0.69-1.61,1.61
				s0.69,1.61,1.61,1.61h14.833c0.575,1.495,1.725,2.76,3.334,3.22v44.728h-10.119c-0.92,0-1.61,0.69-1.61,1.61
				c0,0.92,0.69,1.61,1.61,1.61h23.342c0.92,0,1.61-0.69,1.61-1.61c0-0.92-0.69-1.61-1.61-1.61h-10.119v-44.728
				c1.61-0.46,2.875-1.725,3.335-3.335h14.833c0.92,0,1.61-0.69,1.61-1.61C1845.873,208.087,1845.183,207.512,1844.263,207.512z
				 M1824.601,211.077c-1.15,0-2.07-0.92-2.07-2.07c0-1.15,0.92-2.07,2.07-2.07c1.15,0,2.07,0.92,2.07,2.07
				C1826.671,210.157,1825.751,211.077,1824.601,211.077z"/>
		</g>
	</g>
</g>
<g>
	<g>
		<g>
			<g>
				<path fill="#EB001B" d="M2232.77,541.819c-1.647,0-2.988,1.286-2.988,2.866c0,1.579,1.341,2.864,2.988,2.864
					c1.645,0,2.983-1.285,2.983-2.864C2235.754,543.106,2234.416,541.819,2232.77,541.819z M2232.77,546.358
					c-0.99,0-1.795-0.749-1.795-1.671c0-0.923,0.805-1.673,1.795-1.673c0.988,0,1.79,0.75,1.79,1.673
					C2234.561,545.609,2233.758,546.358,2232.77,546.358z"/>
				<path fill="#EB001B" d="M2271.493,534.64c-0.292,0.153-0.404,0.513-0.252,0.805c0.885,1.691,1.333,3.508,1.333,5.4
					c0,6.751-5.805,12.242-12.941,12.242c-7.136,0-12.941-5.491-12.941-12.242c0-3.214,1.33-6.261,3.746-8.576
					c0.028-0.026,0.054-0.057,0.075-0.091c2.449-2.306,5.683-3.575,9.12-3.575c1.985,0,3.884,0.414,5.645,1.231
					c0.298,0.14,0.652,0.007,0.792-0.29c0.138-0.298,0.008-0.654-0.29-0.792c-1.92-0.891-3.99-1.342-6.147-1.342
					c-3.781,0-7.34,1.413-10.02,3.978c-0.029,0.027-0.055,0.06-0.079,0.095c-2.603,2.533-4.035,5.854-4.035,9.362
					c0,7.408,6.341,13.435,14.134,13.435s14.134-6.027,14.134-13.435c0-2.086-0.495-4.089-1.469-5.953
					C2272.146,534.601,2271.784,534.485,2271.493,534.64z"/>
				<path fill="#EB001B" d="M2250.758,539.623c0,1.868,1.589,3.387,3.54,3.387c1.951,0,3.539-1.52,3.539-3.387
					c0-1.869-1.588-3.389-3.539-3.389C2252.346,536.234,2250.758,537.754,2250.758,539.623z M2256.644,539.623
					c0,1.211-1.052,2.195-2.346,2.195c-1.294,0-2.347-0.985-2.347-2.195c0-1.211,1.053-2.196,2.347-2.196
					C2255.59,537.426,2256.644,538.412,2256.644,539.623z"/>
				<path fill="#EB001B" d="M2262.576,539.551c-2.154,0-3.907,1.677-3.907,3.738c0,2.061,1.753,3.737,3.907,3.737
					c2.155,0,3.909-1.677,3.909-3.737C2266.485,541.228,2264.731,539.551,2262.576,539.551z M2262.576,545.833
					c-1.497,0-2.715-1.141-2.715-2.544c0-1.404,1.218-2.545,2.715-2.545c1.498,0,2.716,1.143,2.716,2.545
					S2264.074,545.833,2262.576,545.833z"/>
				<path fill="#EB001B" d="M2292.752,523.66c-2.695,0-5.092,1.659-5.947,4.073c-1.271,0.373-3.748,1.07-6.263,1.355
					c-2.226,0.255-4.589,0.377-6.165,0.41c-2.935-3.441-7.04-5.705-11.633-6.426c-0.261-1.282-0.532-2.752-0.685-4.275
					c-0.171-1.806,0.032-3.85,0.161-4.869c1.288-0.885,2.048-2.288,2.048-3.81c0-2.568-2.188-4.658-4.876-4.658
					c-2.692,0-4.882,2.09-4.882,4.658c0,1.672,0.947,3.222,2.443,4.042c0.045,1.412,0.005,2.641-0.122,3.745
					c-0.234,2.019-0.578,4.026-0.802,5.241c-3.916,0.718-7.513,2.604-10.224,5.358c-1.023-0.391-2.084-0.837-3.021-1.285
					c-1.76-0.867-3.422-1.912-4.217-2.431c-0.56-2.137-2.571-3.662-4.878-3.662c-2.763,0-5.013,2.147-5.013,4.785
					s2.248,4.785,5.013,4.785c0.055,0,0.112,0,0.172-0.002c0.025,0.01,0.05,0.019,0.075,0.025c0.026,0.007,2.692,0.713,5.184,1.926
					c0.885,0.435,1.843,0.97,2.88,1.589c-0.889,2.104-1.359,4.321-1.359,6.61c0,3.625,1.127,7.092,3.243,10.07
					c-0.097,0.111-0.186,0.222-0.304,0.333c-0.813,0.804-1.889,1.722-3.284,2.805c-0.115-0.016-0.234-0.023-0.358-0.023
					c-2.461,0-4.463,1.912-4.463,4.26c0,2.351,2.002,4.263,4.463,4.263c2.459,0,4.459-1.912,4.459-4.263
					c0-0.465-0.079-0.909-0.24-1.349c0.679-1.019,1.293-1.793,1.922-2.421c0.182-0.185,0.398-0.346,0.607-0.513
					c2.561,2.278,5.682,3.822,9.086,4.486c0.184,0.501,0.502,1.546,0.502,2.772c0,0.992-0.073,2.234-0.208,3.607
					c-1.69,1.104-2.729,2.97-2.729,4.938c0,3.321,2.824,6.021,6.296,6.021c3.469,0,6.291-2.702,6.291-6.021
					c0-2.019-1.075-3.914-2.824-5.013c-0.192-1.478-0.289-2.722-0.289-3.701c0-0.804,0.224-1.681,0.644-2.601
					c8.806-1.687,15.167-9.053,15.167-17.65c0-0.809-0.068-1.574-0.179-2.302c1.577-1.195,3.125-2.123,4.597-2.737
					c2.444-0.992,5.246-1.159,6.138-1.187c1.054,0.695,2.286,1.063,3.576,1.063c3.471,0,6.294-2.692,6.294-6.001
					C2299.046,526.36,2296.223,523.66,2292.752,523.66z M2292.752,534.487c-1.111,0-2.166-0.332-3.053-0.958
					c-0.104-0.074-0.241-0.109-0.354-0.11c-0.627,0.011-3.9,0.12-6.759,1.281c-1.66,0.694-3.392,1.737-5.146,3.098
					c-0.024,0.018-0.036,0.044-0.055,0.064c-0.029,0.03-0.059,0.058-0.081,0.094c-0.021,0.033-0.032,0.07-0.047,0.106
					c-0.013,0.035-0.027,0.068-0.035,0.104c-0.007,0.043-0.003,0.086-0.002,0.13c0.001,0.027-0.006,0.052-0.001,0.08
					c0.139,0.761,0.21,1.591,0.21,2.467c0,8.122-6.099,15.081-14.5,16.546c-0.017,0.002-0.03,0.013-0.046,0.018
					c-0.037,0.01-0.07,0.025-0.105,0.041c-0.036,0.018-0.07,0.035-0.101,0.058c-0.028,0.021-0.051,0.048-0.075,0.074
					c-0.029,0.031-0.055,0.063-0.076,0.099c-0.008,0.013-0.02,0.021-0.027,0.036c-0.582,1.181-0.877,2.319-0.877,3.381
					c0,1.109,0.11,2.465,0.336,4.145c0.025,0.185,0.136,0.348,0.298,0.44c1.528,0.859,2.477,2.44,2.477,4.128
					c0,2.662-2.286,4.828-5.098,4.828c-2.814,0-5.104-2.166-5.104-4.828c0-1.646,0.92-3.206,2.401-4.071
					c0.164-0.095,0.272-0.264,0.292-0.452c0.112-1.066,0.246-2.63,0.246-4.022c0-1.732-0.542-3.133-0.707-3.522
					c-0.008-0.019-0.024-0.031-0.033-0.049c-0.02-0.037-0.043-0.07-0.07-0.101c-0.024-0.027-0.049-0.051-0.076-0.074
					c-0.031-0.025-0.063-0.045-0.099-0.064c-0.035-0.018-0.069-0.031-0.106-0.042c-0.02-0.006-0.037-0.019-0.059-0.023
					c-3.483-0.618-6.668-2.209-9.213-4.603c-0.015-0.014-0.034-0.019-0.051-0.032c-0.032-0.025-0.064-0.045-0.1-0.062
					c-0.035-0.017-0.069-0.03-0.106-0.039c-0.037-0.01-0.073-0.016-0.111-0.018c-0.038-0.002-0.075-0.002-0.113,0.002
					c-0.037,0.005-0.073,0.013-0.109,0.025c-0.038,0.012-0.074,0.027-0.109,0.048c-0.018,0.01-0.038,0.012-0.055,0.025
					c-0.404,0.286-0.78,0.605-1.115,0.945c-0.737,0.737-1.449,1.646-2.241,2.863c-0.063,0.097-0.097,0.23-0.097,0.346
					c0,0.085,0.018,0.168,0.052,0.246c0.172,0.382,0.255,0.76,0.255,1.157c0,1.693-1.466,3.07-3.267,3.07
					c-1.803,0-3.271-1.378-3.271-3.07c0-1.691,1.467-3.068,3.271-3.068c0.131,0,0.25,0.014,0.346,0.041
					c0.181,0.051,0.376,0.013,0.526-0.101c0.982-0.755,2.424-1.895,3.597-3.056c0.208-0.194,0.389-0.407,0.561-0.611l0.124-0.147
					c0.012-0.014,0.015-0.032,0.026-0.048c0.024-0.033,0.043-0.067,0.058-0.104c0.016-0.035,0.028-0.069,0.037-0.106
					c0.008-0.037,0.012-0.073,0.013-0.111c0.001-0.039,0-0.075-0.006-0.115c-0.006-0.037-0.017-0.072-0.029-0.106
					c-0.013-0.038-0.03-0.073-0.051-0.107c-0.01-0.017-0.012-0.035-0.024-0.05c-2.148-2.858-3.283-6.232-3.283-9.758
					c0-2.298,0.488-4.525,1.45-6.618c0.012-0.026,0.011-0.054,0.019-0.081c0.012-0.039,0.025-0.076,0.028-0.117
					c0.003-0.039-0.001-0.075-0.005-0.113c-0.003-0.038-0.007-0.074-0.018-0.111c-0.011-0.037-0.029-0.07-0.048-0.104
					c-0.018-0.033-0.033-0.066-0.057-0.095c-0.025-0.031-0.056-0.055-0.087-0.08c-0.022-0.019-0.037-0.043-0.062-0.057
					c-1.249-0.76-2.363-1.379-3.409-1.893c-2.349-1.143-4.767-1.834-5.301-1.98c-0.135-0.093-0.317-0.125-0.479-0.097
					c-0.051,0.008-0.113,0.006-0.174,0.006c-2.106,0-3.82-1.611-3.82-3.593s1.714-3.593,3.82-3.593c1.833,0,3.417,1.243,3.768,2.957
					c0.031,0.155,0.124,0.291,0.255,0.378c0.706,0.468,2.562,1.659,4.552,2.638c1.381,0.658,2.644,1.159,3.465,1.465
					c0.002,0,0.006,0.002,0.008,0.002c0.019,0.007,0.04,0.004,0.059,0.01c0.05,0.013,0.099,0.027,0.149,0.027
					c0.003,0,0.007-0.002,0.011-0.002c0.055,0,0.105-0.017,0.156-0.031c0.024-0.007,0.049-0.007,0.072-0.018
					c0.074-0.032,0.141-0.078,0.197-0.138c2.656-2.826,6.298-4.733,10.256-5.37c0.017-0.002,0.029-0.013,0.045-0.017
					c0.045-0.011,0.086-0.026,0.128-0.048c0.026-0.013,0.051-0.026,0.075-0.043c0.036-0.025,0.067-0.057,0.096-0.091
					c0.019-0.021,0.04-0.039,0.055-0.063c0.025-0.036,0.039-0.078,0.056-0.12c0.011-0.027,0.025-0.052,0.031-0.081
					c0.001-0.005,0.005-0.01,0.006-0.016c0.218-1.153,0.623-3.429,0.889-5.718c0.144-1.257,0.182-2.657,0.116-4.281
					c-0.01-0.225-0.146-0.426-0.351-0.519c-1.262-0.57-2.078-1.796-2.078-3.124c0-1.911,1.654-3.465,3.689-3.465
					c2.031,0,3.683,1.554,3.683,3.465c0,1.213-0.626,2.286-1.719,2.948c-0.154,0.093-0.258,0.25-0.281,0.429
					c-0.128,0.924-0.402,3.305-0.203,5.416c0.173,1.737,0.493,3.398,0.782,4.795c0.001,0.006,0.006,0.011,0.007,0.017
					c0.011,0.045,0.032,0.083,0.052,0.124c0.014,0.029,0.024,0.061,0.043,0.087c0.026,0.037,0.063,0.064,0.098,0.094
					c0.023,0.02,0.041,0.043,0.067,0.06c0.038,0.024,0.082,0.036,0.125,0.051c0.031,0.011,0.058,0.025,0.091,0.031
					c0.007,0.001,0.014,0.006,0.023,0.007c4.572,0.618,8.656,2.857,11.5,6.304c0.118,0.143,0.289,0.217,0.46,0.217
					c0.001,0,0.003-0.001,0.005-0.001s0.002,0.001,0.004,0.001c1.597-0.025,4.157-0.149,6.549-0.423
					c2.836-0.321,5.592-1.137,6.769-1.485c0.194-0.057,0.347-0.21,0.403-0.406c0.605-2.079,2.62-3.529,4.903-3.529
					c2.813,0,5.101,2.165,5.101,4.827C2297.854,532.331,2295.565,534.487,2292.752,534.487z"/>
				<path fill="#EB001B" d="M2286.315,549.769c-2.258,0-4.095,1.754-4.095,3.912c0,2.156,1.837,3.911,4.095,3.911
					c2.255,0,4.09-1.755,4.09-3.911C2290.404,551.524,2288.569,549.769,2286.315,549.769z M2286.315,556.399
					c-1.601,0-2.902-1.219-2.902-2.718s1.301-2.719,2.902-2.719c1.597,0,2.897,1.22,2.897,2.719S2287.912,556.399,2286.315,556.399z
					"/>
			</g>
		</g>
	</g>
</g>
<g>
	<g>
		<g>
			<g>
				<g>
					<g>
						<path fill="#EB001B" d="M1388.504,261.871c-0.268,0-0.537-0.097-0.748-0.29c-1.155-1.055-28.284-26.019-28.082-41.494
							c0.056-4.265,1.842-8.26,5.03-11.249c3.184-2.986,7.417-4.631,11.919-4.631c4.453,0,8.72,1.651,11.881,4.563
							c3.16-2.912,7.427-4.563,11.88-4.563c4.802,0,9.409,1.903,12.643,5.22c2.879,2.954,4.408,6.755,4.307,10.703
							c-0.404,15.628-26.946,40.399-28.076,41.446C1389.046,261.772,1388.775,261.871,1388.504,261.871z M1376.624,206.424
							c-8.024,0-14.633,6.142-14.731,13.691c-0.171,13.123,22.182,34.937,26.606,39.123c4.362-4.186,26.274-25.865,26.618-39.166
							c0.087-3.345-1.219-6.576-3.679-9.098c-2.818-2.892-6.847-4.55-11.054-4.55c-4.236,0-8.273,1.7-11.073,4.664
							c-0.21,0.222-0.502,0.347-0.806,0.347c-0.305,0-0.596-0.126-0.806-0.347C1384.897,208.124,1380.86,206.424,1376.624,206.424z"
							/>
					</g>
					<g>
						<path fill="#EB001B" d="M1388.506,244.995c-0.612,0-1.109-0.497-1.109-1.109v-22.902c0-0.612,0.496-1.109,1.109-1.109
							s1.109,0.497,1.109,1.109v22.902C1389.615,244.499,1389.118,244.995,1388.506,244.995z"/>
					</g>
					<g>
						<path fill="#EB001B" d="M1399.957,233.545h-22.902c-0.612,0-1.109-0.497-1.109-1.109s0.496-1.109,1.109-1.109h22.902
							c0.612,0,1.109,0.497,1.109,1.109S1400.57,233.545,1399.957,233.545z"/>
					</g>
				</g>
			</g>
		</g>
	</g>
</g>
<g>
	<g>
		<path fill="#EB001B" d="M1780,552.866v4.5c0,1.105,0.895,2,2,2c1.104,0,2-0.895,2-2v-4.5c0.027-8.339,6.81-15.078,15.149-15.05
			c6.452,0.021,12.178,4.14,14.251,10.25c-3.839,3.602-6.012,8.636-6,13.9v4.5c0,1.105,0.895,2,2,2c1.104,0,2-0.895,2-2v-4.5
			c-0.678-8.312,5.51-15.6,13.822-16.278s15.6,5.51,16.278,13.822c0.067,0.817,0.067,1.638,0,2.456v4.5c0,1.105,0.895,2,2,2
			c1.104,0,2-0.895,2-2v-4.5c0.012-5.264-2.161-10.298-6-13.9c2.831-7.844,11.485-11.909,19.329-9.078
			c5.873,2.119,9.836,7.635,9.971,13.878v4.5c0,1.105,0.896,2,2,2c1.105,0,2-0.895,2-2v-4.5c-0.043-7.65-4.647-14.536-11.7-17.5
			c5.543-4.115,6.702-11.944,2.587-17.487s-11.944-6.702-17.487-2.587c-5.543,4.115-6.702,11.944-2.587,17.487
			c0.731,0.985,1.603,1.856,2.587,2.587c-4.571,1.949-8.197,5.61-10.1,10.2l-2.3-1.2c5.543-4.115,6.702-11.944,2.587-17.487
			c-4.115-5.543-11.944-6.702-17.487-2.587s-6.702,11.944-2.587,17.487c0.731,0.985,1.603,1.856,2.587,2.587l-2.3,1.2
			c-1.903-4.59-5.529-8.251-10.1-10.2c5.543-4.115,6.702-11.944,2.587-17.487s-11.944-6.702-17.487-2.587
			c-5.543,4.115-6.702,11.944-2.587,17.487c0.731,0.985,1.603,1.856,2.587,2.587C1784.587,538.36,1780.027,545.24,1780,552.866z
			 M1845.2,525.366c0-4.694,3.806-8.5,8.5-8.5c4.694,0,8.5,3.806,8.5,8.5c0,4.694-3.806,8.5-8.5,8.5
			C1849.006,533.866,1845.2,530.06,1845.2,525.366L1845.2,525.366z M1817.901,534.466c-0.055-4.694,3.705-8.544,8.399-8.599
			s8.544,3.705,8.599,8.399s-3.705,8.544-8.399,8.599c-0.033,0-0.066,0.001-0.099,0.001
			C1821.745,542.866,1817.955,539.121,1817.901,534.466z M1790.6,525.366c0-4.694,3.806-8.5,8.5-8.5s8.5,3.806,8.5,8.5
			c0,4.694-3.806,8.5-8.5,8.5S1790.6,530.06,1790.6,525.366L1790.6,525.366z"/>
	</g>
</g>
<g>
	<g>
		<path fill="#EB001B" d="M0,41.051v4.5c0,1.105,0.895,2,2,2s2-0.895,2-2v-4.5c0.027-8.339,6.81-15.078,15.149-15.05
			c6.452,0.021,12.178,4.14,14.251,10.25c-3.839,3.602-6.012,8.636-6,13.9v4.5c0,1.105,0.895,2,2,2c1.105,0,2-0.895,2-2v-4.5
			c-0.678-8.312,5.51-15.6,13.822-16.278s15.6,5.51,16.278,13.822c0.067,0.817,0.067,1.638,0,2.456v4.5c0,1.105,0.895,2,2,2
			s2-0.895,2-2v-4.5c0.012-5.264-2.161-10.298-6-13.9c2.831-7.844,11.485-11.909,19.329-9.078c5.873,2.119,9.836,7.635,9.971,13.878
			v4.5c0,1.105,0.895,2,2,2s2-0.895,2-2v-4.5c-0.043-7.65-4.647-14.536-11.7-17.5c5.543-4.115,6.702-11.944,2.587-17.487
			C79.573,0.521,71.743-0.638,66.2,3.477s-6.702,11.944-2.587,17.487c0.731,0.985,1.603,1.856,2.587,2.587
			c-4.571,1.949-8.197,5.61-10.1,10.2l-2.3-1.2c5.543-4.115,6.702-11.944,2.587-17.487S44.443,8.362,38.9,12.477
			s-6.702,11.944-2.587,17.487c0.731,0.985,1.603,1.856,2.587,2.587l-2.3,1.2c-1.903-4.59-5.529-8.251-10.1-10.2
			c5.543-4.115,6.702-11.944,2.587-17.487S17.143-0.638,11.6,3.477S4.898,15.421,9.013,20.964c0.731,0.985,1.603,1.856,2.587,2.587
			C4.586,26.546,0.026,33.425,0,41.051z M65.2,13.551c0-4.694,3.806-8.5,8.5-8.5s8.5,3.806,8.5,8.5s-3.806,8.5-8.5,8.5
			S65.2,18.246,65.2,13.551L65.2,13.551z M37.9,22.651c-0.055-4.694,3.705-8.544,8.399-8.599c4.694-0.055,8.544,3.705,8.599,8.399
			c0.055,4.694-3.705,8.544-8.399,8.599c-0.033,0-0.066,0.001-0.099,0.001C41.744,31.052,37.955,27.307,37.9,22.651z M10.6,13.551
			c0-4.694,3.806-8.5,8.5-8.5s8.5,3.806,8.5,8.5s-3.806,8.5-8.5,8.5S10.6,18.246,10.6,13.551L10.6,13.551z"/>
	</g>
</g>
<path fill="none" stroke="#EB001B" stroke-width="2" stroke-miterlimit="10" d="M2204.136,933.226H1439.33
	c-7.509,0-13.597-6.088-13.597-13.597v-43.723c0-7.509,6.088-13.597,13.597-13.597h764.806c7.509,0,13.597,6.088,13.597,13.597
	v43.723C2217.733,927.139,2211.646,933.226,2204.136,933.226z"/>
<text transform="matrix(1 0 0 1 1565.8701 911.0527)" fill="#EB001B" font-family="'ProximaNova-Bold'" font-size="36.6021">Quiero recibir más información</text>
<g>
	<text transform="matrix(1 0 0 1 1594.7529 1135.2773)" fill="#666666" font-family="'ProximaNova-Bold'" font-size="49.2265">NUESTROS PLANES</text>
</g>
<rect x="1273.146" y="1250" fill="#000093" width="461.176" height="403"/>
<text transform="matrix(1 0 0 1 1339.6748 1400.2676)" fill="#FFFFFF" font-family="'AcuminConcept-CondensedLightItalic'" font-size="75.4483">WITH YOU</text>
<g>
	<text transform="matrix(1 0 0 1 1445.8154 1470.1445)" fill="#FFFFFF" font-family="'Gotham-Medium'" font-size="36.1205">BASIC</text>
</g>
<path fill="#FFFFFF" d="M1624.932,1605.276h-242.395c-7.509,0-13.597-6.088-13.597-13.597v-25.126
	c0-7.509,6.088-13.597,13.597-13.597h242.395c7.509,0,13.597,6.088,13.597,13.597v25.126
	C1638.529,1599.188,1632.441,1605.276,1624.932,1605.276z"/>
<g>
	<text transform="matrix(1 0 0 1 1462.9001 1590.5889)" fill="#000093" font-family="'ProximaNova-Bold'" font-size="28.7264">+INFO</text>
</g>
<rect x="1909.144" y="1250" fill="#EB001B" width="461.176" height="403"/>
<text transform="matrix(1 0 0 1 1975.6722 1393.7275)" fill="#FFFFFF" font-family="'AcuminConcept-CondensedLightItalic'" font-size="75.4483">WITH YOU</text>
<g>
	<text transform="matrix(1 0 0 1 2051.7617 1463.6055)" fill="#FFFFFF" font-family="'Gotham-Medium'" font-size="36.1205">PREMIUM</text>
</g>
<path fill="#FFFFFF" d="M2260.93,1598.736h-242.395c-7.509,0-13.597-6.088-13.597-13.597v-25.126
	c0-7.509,6.088-13.597,13.597-13.597h242.395c7.509,0,13.597,6.088,13.597,13.597v25.126
	C2274.527,1592.649,2268.439,1598.736,2260.93,1598.736z"/>
<g>
	<text transform="matrix(1 0 0 1 2098.8984 1584.0488)" fill="#EB001B" font-family="'ProximaNova-Bold'" font-size="28.7264">+INFO</text>
</g>
<g>
	<text transform="matrix(1 0 0 1 1423.6349 1865.2734)"><tspan x="0" y="0" fill="#666666" font-family="'ProximaNova-Bold'" font-size="49.0124">¿Sabías que el 40% de las personas  </tspan><tspan x="-11.86" y="71.69" fill="#666666" font-family="'ProximaNova-Bold'" font-size="49.0124">sienten ansiedad por el aislamiento? </tspan></text>
</g>
<path fill="none" stroke="#EB001B" stroke-width="2" stroke-miterlimit="10" d="M2084.344,2057.568h-525.221
	c-7.509,0-13.597-6.088-13.597-13.597v-22.27c0-7.509,6.088-13.597,13.597-13.597h525.221c7.509,0,13.597,6.088,13.597,13.597v22.27
	C2097.941,2051.48,2091.853,2057.568,2084.344,2057.568z"/>
<text transform="matrix(1 0 0 1 1643.2706 2042.1023)" fill="#EB001B" font-family="'ProximaNova-Bold'" font-size="25.5298">Quiero recibir más información</text>
<g>
	<circle fill="#CCCCCC" cx="1782.201" cy="2123.467" r="13.467"/>
	<circle fill="#E6E6E6" cx="1824.774" cy="2123.467" r="13.467"/>
	<circle fill="#E6E6E6" cx="1868.266" cy="2123.467" r="13.467"/>
</g>
<rect x="861.733" y="2241.993" fill="#E6E6E6" width="1920" height="356.007"/>
<g>
	<rect x="913.872" y="2460.087" fill="none" width="1815.722" height="59.568"/>
	<text transform="matrix(1 0 0 1 930.4311 2472.6416)"><tspan x="0" y="0" fill="#444042" font-family="'ProximaNova-Medium'" font-size="15">Usted ha recibido esta comunicación ya  que ha adquirido productos comercializados por AXA Assistance Argentina SA o ha tenido contacto directo con nosotros, facilitándonos datos que nos permite brindarle, por este medio, información  sobre los productos que comercializamos AXA </tspan><tspan x="-14.699" y="20.987" fill="#444042" font-family="'ProximaNova-Medium'" font-size="15">Assistance Argentina SA  garantiza que no transferirá datos personales sensibles a terceros, salvo con su consentimiento específico. De acuerdo a lo establecido en la  Ley 25.326 art. 27 Inciso 3, usted podrá en cualquier momento solicitar el retiro o bloqueo de sus datos de nuestros bancos de </tspan><tspan x="535.237" y="41.975" fill="#444042" font-family="'ProximaNova-Medium'" font-size="15">datos.  Para dejar de recibir estos mensajes, envíenos un correo electrónico a desuscripcion@axa-assistance.com.ar</tspan></text>
</g>
<g>
	<g id="YbGCWp.tif">
		<g>
			<path fill="#666666" d="M2496.583,2304.833c11.704,0,23.409,0,35.113,0c0.104,0.05,0.202,0.124,0.311,0.148
				c3.251,0.707,5.146,3.034,5.147,6.347c0.003,11.066,0.004,22.133-0.001,33.199c-0.001,3.687-2.67,6.368-6.338,6.377
				c-2.96,0.007-5.921,0.002-8.881,0c-0.247,0-0.493-0.025-0.71-0.037c0-5.505,0-10.918,0-16.372c1.849,0,3.633,0.004,5.417-0.002
				c0.793-0.003,1.173-0.333,1.269-1.107c0.195-1.581,0.386-3.163,0.564-4.747c0.125-1.11-0.292-1.56-1.424-1.563
				c-1.245-0.004-2.49-0.001-3.736-0.001c-0.696,0-1.392,0-2.128,0c0-1.833-0.101-3.574,0.03-5.298
				c0.121-1.592,1.066-2.326,2.698-2.376c1.009-0.031,2.02-0.005,3.03-0.021c0.922-0.015,1.332-0.414,1.345-1.339
				c0.018-1.315,0.016-2.631,0.001-3.947c-0.011-0.958-0.379-1.342-1.329-1.339c-1.784,0.005-3.57-0.002-5.351,0.084
				c-3.653,0.177-6.708,2.72-7.4,6.327c-0.31,1.618-0.252,3.309-0.324,4.969c-0.041,0.954-0.008,1.911-0.008,2.941
				c-1.352,0-2.615-0.003-3.877,0.001c-1.042,0.004-1.454,0.405-1.454,1.449c0,1.409,0.027,2.819,0.035,4.228
				c0.009,1.531,0.218,1.743,1.753,1.743c1.165,0,2.33,0,3.496,0c0,5.521,0,10.934,0,16.366c-0.167,0.018-0.281,0.042-0.395,0.042
				c-5.474,0-10.949,0.024-16.423-0.014c-2.561-0.018-4.883-1.887-5.617-4.378c-0.104-0.355-0.209-0.71-0.314-1.065
				c0-11.704,0-23.409,0-35.113c0.057-0.149,0.135-0.293,0.168-0.448c0.546-2.52,2.087-4.099,4.541-4.82
				C2496.056,2304.988,2496.319,2304.91,2496.583,2304.833z"/>
		</g>
	</g>
	<g id="u8ntBm.tif">
		<g>
			<path fill="#666666" d="M2549.353,2339.046c0-7.705,0-15.409,0-23.114c0.077-0.484,0.128-0.973,0.235-1.45
				c1.206-5.364,4.453-8.802,9.753-10.274c0.69-0.192,1.415-0.261,2.124-0.387c7.705,0,15.409,0,23.114,0
				c0.15,0.028,0.298,0.065,0.449,0.082c1.294,0.142,2.561,0.429,3.734,0.984c5.085,2.404,7.826,6.43,7.905,12.06
				c0.098,7.025,0.029,14.052,0.021,21.079c-0.003,2.723-0.736,5.246-2.318,7.466c-2.683,3.763-6.376,5.65-10.996,5.662
				c-6.903,0.018-13.806,0.013-20.709-0.006c-0.889-0.002-1.799-0.05-2.662-0.24c-5.36-1.183-8.788-4.443-10.259-9.734
				C2549.549,2340.482,2549.479,2339.756,2549.353,2339.046z M2592.493,2327.497c0-3.42,0.002-6.84-0.001-10.26
				c-0.001-1.083-0.108-2.152-0.473-3.181c-1.337-3.764-4.579-6.031-8.672-6.036c-6.886-0.009-13.773-0.022-20.659,0.019
				c-1.031,0.006-2.108,0.148-3.081,0.474c-3.785,1.271-6.048,4.552-6.054,8.64c-0.01,6.886-0.005,13.773,0,20.659
				c0,1.067,0.118,2.119,0.481,3.133c1.336,3.729,4.547,6.001,8.594,6.011c6.932,0.018,13.865,0.013,20.798,0.001
				c3.103-0.005,5.606-1.249,7.438-3.769c1.163-1.6,1.634-3.423,1.631-5.385C2592.49,2334.368,2592.493,2330.932,2592.493,2327.497z
				"/>
			<path fill="#666666" d="M2585.22,2327.496c-0.008,6.706-5.527,12.215-12.216,12.193c-6.716-0.022-12.218-5.545-12.181-12.228
				c0.036-6.707,5.502-12.163,12.193-12.17C2579.712,2315.283,2585.228,2320.799,2585.22,2327.496z M2573.012,2335.48
				c4.398,0.013,7.987-3.569,7.999-7.982c0.012-4.398-3.569-7.987-7.982-7.999c-4.399-0.012-7.986,3.567-7.999,7.982
				C2565.019,2331.879,2568.599,2335.467,2573.012,2335.48z"/>
			<path fill="#666666" d="M2585.799,2311.748c1.693,0.048,3.063,1.462,3.011,3.109c-0.054,1.735-1.475,3.078-3.194,3.02
				c-1.652-0.056-3.012-1.483-2.966-3.111C2582.7,2313.052,2584.111,2311.7,2585.799,2311.748z"/>
		</g>
	</g>
	<g id="luHpHD_1_">
		<g>
			<path fill="#666666" d="M2642.808,2303.855c4.761,0,9.523-0.038,14.283,0.014c2.981,0.032,5.962,0.182,8.941,0.315
				c1.066,0.048,2.135,0.153,3.19,0.316c2.577,0.397,4.02,2.163,5.029,4.363c0.934,2.037,1.461,4.202,1.726,6.421
				c0.217,1.825,0.454,3.656,0.52,5.49c0.136,3.794,0.322,7.598,0.192,11.388c-0.135,3.943-0.48,7.902-1.645,11.709
				c-0.671,2.194-1.622,4.262-3.675,5.584c-1.287,0.828-2.757,0.927-4.197,1.01c-3.27,0.188-6.544,0.336-9.819,0.383
				c-7.035,0.101-14.07,0.134-21.105,0.183c-2.187,0.015-4.375,0.027-6.561-0.02c-2.684-0.058-5.369-0.148-8.05-0.286
				c-1.631-0.084-3.257-0.281-4.885-0.433c-2.307-0.215-3.789-1.621-4.922-3.481c-1.096-1.8-1.534-3.837-1.933-5.868
				c-0.584-2.972-0.92-5.974-0.903-9.01c0.02-3.506-0.089-7.017,0.072-10.516c0.171-3.718,0.449-7.449,1.699-11.01
				c0.569-1.619,1.297-3.156,2.548-4.39c1.198-1.18,2.718-1.514,4.303-1.652C2626.002,2303.636,2634.408,2303.849,2642.808,2303.855
				z M2635.716,2327.348c0.001,0,0.002,0,0.003,0c0,3.986-0.003,7.972,0.008,11.958c0.001,0.226,0.062,0.518,0.21,0.653
				c0.094,0.085,0.437-0.009,0.608-0.117c2.245-1.426,4.481-2.866,6.715-4.309c3.857-2.492,7.708-4.992,11.566-7.48
				c0.843-0.543,0.856-0.775,0.001-1.329c-6.065-3.934-12.13-7.869-18.201-11.793c-0.208-0.135-0.489-0.157-0.736-0.231
				c-0.058,0.23-0.166,0.46-0.167,0.69C2635.713,2319.376,2635.716,2323.362,2635.716,2327.348z"/>
		</g>
	</g>
	<g>
		<text transform="matrix(1 0 0 1 2260.7861 2339.4053)" fill="#666666" font-family="'ProximaNova-Regular'" font-size="32.5227">SEGUINOS EN</text>
	</g>
</g>
<g>
	<g>
		<path fill="#EB001B" d="M1388.506,497c-5.384,0-10.469,1.321-14.938,3.656c-0.984,0.509-1.369,1.719-0.859,2.703
			c0.509,0.984,1.719,1.368,2.703,0.859c3.914-2.046,8.364-3.219,13.094-3.219c4.729,0,9.179,1.173,13.094,3.219
			c0.984,0.509,2.194,0.124,2.703-0.859c0.509-0.984,0.124-2.194-0.859-2.703C1398.976,498.321,1393.891,497,1388.506,497z
			 M1360.506,499c-4.947,0-9,4.053-9,9c0,1.953,0.779,3.648,1.844,5.125c-5.271,2.995-8.844,8.925-8.844,15.875c0,1.105,0.895,2,2,2
			h28c1.104,0,2-0.895,2-2c0-6.95-3.573-12.88-8.844-15.875c1.064-1.477,1.844-3.172,1.844-5.125
			C1369.506,503.053,1365.453,499,1360.506,499z M1416.506,499c-4.947,0-9,4.053-9,9c0,1.953,0.779,3.648,1.844,5.125
			c-5.271,2.995-8.844,8.925-8.844,15.875c0,1.105,0.895,2,2,2h28c1.104,0,2-0.895,2-2c0-6.95-3.573-12.88-8.844-15.875
			c1.064-1.477,1.844-3.172,1.844-5.125C1425.506,503.053,1421.453,499,1416.506,499z M1360.506,503c2.785,0,5,2.215,5,5
			c0,1.679-0.823,3.15-2.094,4.063c-0.905,0.633-1.125,1.881-0.492,2.786c0.243,0.347,0.59,0.608,0.992,0.746
			c4.329,1.483,7.617,5.887,8.313,11.406h-23.438c0.696-5.519,3.983-9.923,8.313-11.406c1.045-0.357,1.603-1.494,1.245-2.54
			c-0.137-0.401-0.398-0.748-0.745-0.992c-1.271-0.913-2.094-2.383-2.094-4.063C1355.506,505.215,1357.721,503,1360.506,503z
			 M1416.506,503c2.785,0,5,2.215,5,5c0,1.679-0.823,3.15-2.094,4.063c-0.905,0.633-1.125,1.881-0.492,2.786
			c0.243,0.347,0.59,0.608,0.992,0.746c4.329,1.483,7.617,5.887,8.313,11.406h-23.438c0.696-5.519,3.983-9.923,8.313-11.406
			c1.045-0.357,1.603-1.494,1.245-2.54c-0.137-0.401-0.398-0.748-0.745-0.992c-1.271-0.913-2.094-2.383-2.094-4.063
			C1411.506,505.215,1413.721,503,1416.506,503z M1358.881,534c-1.104,0.038-1.968,0.964-1.93,2.068
			c0.005,0.135,0.023,0.269,0.055,0.401c1.835,8.097,6.694,15.04,13.344,19.563c0.915,0.621,2.16,0.383,2.781-0.531
			c0.621-0.915,0.383-2.16-0.531-2.781c0,0,0,0,0,0c-5.828-3.963-10.081-10.036-11.688-17.125
			C1360.715,534.638,1359.857,533.965,1358.881,534z M1417.881,534c-0.881,0.079-1.605,0.727-1.781,1.594
			c-1.606,7.089-5.86,13.162-11.688,17.125c-0.915,0.621-1.153,1.867-0.531,2.781c0.621,0.915,1.866,1.153,2.781,0.531l0,0
			c6.65-4.523,11.509-11.466,13.344-19.563c0.263-1.073-0.393-2.156-1.466-2.419C1418.325,533.996,1418.102,533.98,1417.881,534z
			 M1388.506,539c-4.947,0-9,4.053-9,9c0,1.953,0.779,3.648,1.844,5.125c-5.271,2.995-8.844,8.925-8.844,15.875c0,1.105,0.895,2,2,2
			h28c1.104,0,2-0.895,2-2c0-6.95-3.573-12.88-8.844-15.875c1.064-1.477,1.844-3.172,1.844-5.125
			C1397.506,543.053,1393.453,539,1388.506,539z M1388.506,543c2.785,0,5,2.215,5,5c0,1.679-0.823,3.15-2.094,4.063
			c-0.905,0.633-1.125,1.881-0.492,2.786c0.243,0.347,0.59,0.608,0.992,0.746c4.329,1.483,7.617,5.887,8.313,11.406h-23.438
			c0.696-5.519,3.983-9.923,8.313-11.406c1.045-0.357,1.603-1.494,1.245-2.54c-0.137-0.401-0.398-0.748-0.745-0.992
			c-1.271-0.913-2.094-2.383-2.094-4.063C1383.506,545.215,1385.721,543,1388.506,543z"/>
	</g>
</g>
<g>
	<g>
		<text transform="matrix(1 0 0 1 2145.791 -909.2959)"><tspan x="0" y="0" fill="#FFFFFF" font-family="'ProximaNova-Bold'" font-size="27.1582">  o completa el formulario para que nos  </tspan><tspan x="16.104" y="32.147" fill="#FFFFFF" font-family="'ProximaNova-Bold'" font-size="27.1582">pongamos en contacto a la brevedad</tspan></text>
	</g>
	<g>
		<g>
			<rect x="2164.869" y="-835.56" fill="none" width="429.046" height="267.13"/>
			<text transform="matrix(1 0 0 1 2164.8689 -820.5962)"><tspan x="0" y="0" fill="#FFFFFF" font-family="'ProximaNova-Bold'" font-size="22.435">Nombre </tspan><tspan x="0" y="86.271" fill="#FFFFFF" font-family="'ProximaNova-Bold'" font-size="22.435">Apellido</tspan><tspan x="0" y="164.542" fill="#FFFFFF" font-family="'ProximaNova-Bold'" font-size="22.435">Email</tspan><tspan x="0" y="246.814" fill="#FFFFFF" font-family="'ProximaNova-Bold'" font-size="22.435">Teléfono</tspan></text>
		</g>
		<rect x="2163.407" y="-805.803" opacity="0.79" fill="#FFFFFF" width="451.062" height="36.605"/>
		<rect x="2163.998" y="-720.712" opacity="0.79" fill="#FFFFFF" width="451.062" height="36.605"/>
		<rect x="2163.998" y="-641.622" opacity="0.79" fill="#FFFFFF" width="451.062" height="36.605"/>
		<rect x="2163.998" y="-561.17" opacity="0.79" fill="#FFFFFF" width="451.062" height="36.605"/>
		<rect x="2165.178" y="-485.142" opacity="0.79" fill="#FFFFFF" width="25.977" height="21.254"/>
		<g>
			<text transform="matrix(1 0 0 1 2201.7527 -480.0849)"><tspan x="0" y="0" fill="#FFFFFF" font-family="'ProximaNova-Medium'" font-size="14">Acepto recibir información promocional por</tspan><tspan x="0" y="16.271" fill="#FFFFFF" font-family="'ProximaNova-Medium'" font-size="14">parte de Axa Assistance Argentina SA.</tspan></text>
		</g>
		<path fill="#EB001B" d="M2601.401-395.497h-423.806c-7.509,0-13.597-6.088-13.597-13.597v-9.411
			c0-7.509,6.087-13.597,13.597-13.597h423.806c7.509,0,13.597,6.088,13.597,13.597v9.411
			C2614.998-401.585,2608.91-395.497,2601.401-395.497z"/>
		<text transform="matrix(1 0 0 1 2355.519 -406.9424)" fill="#FFFFFF" font-family="'ProximaNova-Bold'" font-size="18.8927">ENVIAR</text>
	</g>
	<text transform="matrix(1 0 0 1 2223.3389 -963.9346)" fill="#FFFFFF" font-family="'ProximaNova-Bold'" font-size="45.52">0800-222-0365</text>
	<text transform="matrix(1 0 0 1 2300.8481 -1014.6011)" fill="#FFFFFF" font-family="'ProximaNova-Bold'" font-size="27.1582">Comunicate al</text>
</g>
<g>
	<rect id="base" x="1023.461" y="-1309.088" fill="#000093" width="126.42" height="126.42"/>
	<polygon id="switch" fill="#FF101C" points="1101.801,-1246.656 1149.881,-1309.089 1142.78,-1309.089 1094.541,-1246.656 	"/>
	<path id="axa" fill="#FFFFFF" d="M1120.058-1218.795c2.204,6.165,6.744,22.208,8.549,23.486h-11.92c0,0-0.044-2.369-0.56-4.207
		c-0.514-1.834-4.826-15.705-4.826-15.705h-18.935l-2.977,4.22c0,0,3.576,11.193,3.798,11.742c0.386,0.989,2.093,3.95,2.093,3.95
		h-11.424c0,0-0.296-1.709-0.407-2.422c-0.089-0.575-1.082-3.724-1.082-3.724s-2.589,2.837-3.295,4.153
		c-0.712,1.313-1.028,1.992-1.028,1.992h-8.937c0,0-0.298-1.709-0.409-2.422c-0.087-0.575-1.18-3.976-1.18-3.976
		s-2.502,3.038-3.214,4.351c-0.708,1.315-1.013,2.047-1.013,2.047h-8.839c0,0,2.498-2.378,3.371-3.399
		c1.472-1.731,6.958-8.9,6.958-8.9l-2.199-7.613h-18.791c0,0-10.714,14.078-11.136,14.514c-0.427,0.429-3.55,4.911-3.619,5.398
		h-5.575v-3.545c0.107-0.109,0.183-0.187,0.22-0.213c0.172-0.126,8.123-9.995,15.426-19.727c6.564-8.486,12.722-16.74,13.262-17.526
		c1.309-1.901,3.195-6.006,3.195-6.006h9.714c0,0,0.301,3.776,0.584,4.693c0.252,0.81,6.171,20.23,6.311,20.439l3.273-4.185
		l-5.594-17.221c0,0-1.311-3.24-1.738-3.726h11.348c0,0-0.089,1.666,0.37,3.086c0.462,1.42,2.894,10.198,2.894,10.198
		s7.739-9.701,8.192-10.398c0.851-1.169,0.956-2.885,0.956-2.885h9.455c0,0-1.731,1.265-4.765,5.102
		c-1.019,1.291-11.004,13.981-11.004,13.981s0.871,2.97,1.296,4.449c0.116,0.425,0.196,0.712,0.196,0.743
		c0,0.013,0.22-0.257,0.599-0.743c2.576-3.264,14.294-18.63,15.004-19.945c0.573-1.063,1.415-2.271,1.91-3.586h9.224
		c0,0,0.213,2.755,0.494,3.517L1120.058-1218.795z M1106.021-1233.34c-1.354,2.914-9.327,12.62-9.327,12.62h12.626
		c0,0-2.448-7.537-2.874-9.235c-0.34-1.352-0.248-3.092-0.248-3.301C1106.197-1233.411,1106.169-1233.662,1106.021-1233.34z
		 M1057.51-1233.34c-1.354,2.914-9.327,12.62-9.327,12.62h12.626c0,0-2.445-7.537-2.872-9.235c-0.34-1.352-0.248-3.092-0.248-3.301
		C1057.688-1233.411,1057.658-1233.662,1057.51-1233.34z M1076.518-1203.911l3.476-4.773c-0.32-0.344-2.278-6.28-2.278-6.28
		l-3.36,4.359L1076.518-1203.911z"/>
</g>
<g>
	<rect id="base_1_" x="1006.01" y="2268.035" fill="#000093" width="118.917" height="118.917"/>
	<polygon id="switch_1_" fill="#FF101C" points="1079.7,2326.761 1124.927,2268.034 1118.247,2268.034 1072.871,2326.761 	"/>
	<path id="axa_1_" fill="#FFFFFF" d="M1096.874,2352.969c2.073,5.799,6.344,20.89,8.042,22.092h-11.213c0,0-0.041-2.229-0.526-3.958
		c-0.484-1.725-4.539-14.773-4.539-14.773h-17.811l-2.8,3.97c0,0,3.363,10.529,3.572,11.045c0.363,0.93,1.969,3.716,1.969,3.716
		h-10.746c0,0-0.279-1.608-0.383-2.278c-0.084-0.541-1.018-3.503-1.018-3.503s-2.435,2.669-3.099,3.906
		c-0.67,1.235-0.967,1.874-0.967,1.874h-8.407c0,0-0.281-1.608-0.385-2.278c-0.082-0.541-1.11-3.74-1.11-3.74
		s-2.354,2.857-3.023,4.093c-0.666,1.237-0.953,1.926-0.953,1.926h-8.314c0,0,2.349-2.237,3.171-3.198
		c1.385-1.629,6.545-8.372,6.545-8.372l-2.069-7.161h-17.676c0,0-10.078,13.243-10.475,13.653c-0.401,0.404-3.339,4.619-3.405,5.078
		h-5.244v-3.335c0.101-0.103,0.172-0.176,0.207-0.201c0.162-0.119,7.641-9.402,14.511-18.557
		c6.174-7.983,11.967-15.746,12.475-16.486c1.231-1.788,3.005-5.649,3.005-5.649h9.138c0,0,0.283,3.552,0.549,4.414
		c0.237,0.762,5.805,19.03,5.936,19.226l3.079-3.937l-5.262-16.199c0,0-1.233-3.048-1.635-3.505h10.674c0,0-0.084,1.567,0.348,2.903
		c0.434,1.336,2.722,9.593,2.722,9.593s7.28-9.126,7.706-9.781c0.801-1.1,0.899-2.714,0.899-2.714h8.894c0,0-1.628,1.19-4.482,4.799
		c-0.959,1.215-10.351,13.151-10.351,13.151s0.819,2.794,1.219,4.185c0.109,0.399,0.184,0.67,0.184,0.698
		c0,0.012,0.207-0.242,0.563-0.698c2.423-3.071,13.446-17.524,14.114-18.761c0.539-1,1.331-2.136,1.796-3.374h8.677
		c0,0,0.201,2.591,0.465,3.308L1096.874,2352.969z M1083.67,2339.287c-1.274,2.741-8.773,11.871-8.773,11.871h11.877
		c0,0-2.302-7.09-2.704-8.687c-0.32-1.272-0.234-2.909-0.234-3.105C1083.836,2339.22,1083.809,2338.984,1083.67,2339.287z
		 M1038.038,2339.287c-1.274,2.741-8.773,11.871-8.773,11.871h11.877c0,0-2.3-7.09-2.702-8.687c-0.32-1.272-0.234-2.909-0.234-3.105
		C1038.206,2339.22,1038.177,2338.984,1038.038,2339.287z M1055.918,2366.969l3.269-4.49c-0.301-0.323-2.143-5.907-2.143-5.907
		l-3.161,4.101L1055.918,2366.969z"/>
</g>
<g>
	<g id="XMLID_45_">
		<rect x="2524.386" y="-1292.332" fill="#FF5F00" width="35.77" height="64.281"/>
		<path id="XMLID_49_" fill="#EB001B" d="M2526.658-1260.192c0-13.041,6.106-24.655,15.614-32.14
			c-6.954-5.474-15.728-8.74-25.264-8.74c-22.576,0-40.877,18.303-40.877,40.881c0,22.577,18.302,40.88,40.877,40.88
			c9.536,0,18.31-3.266,25.264-8.74C2532.764-1235.537,2526.658-1247.151,2526.658-1260.192z"/>
		<path fill="#F79E1B" d="M2608.413-1260.192c0,22.577-18.302,40.88-40.878,40.88c-9.536,0-18.31-3.266-25.264-8.74
			c9.508-7.486,15.614-19.1,15.614-32.14s-6.105-24.655-15.614-32.14c6.954-5.474,15.728-8.74,25.264-8.74
			C2590.112-1301.073,2608.413-1282.77,2608.413-1260.192z M2604.513-1234.86v-1.316h0.531v-0.268h-1.352v0.268h0.531v1.316
			H2604.513z M2607.137-1234.86v-1.587h-0.414l-0.476,1.091l-0.477-1.091h-0.414v1.587h0.292v-1.197l0.447,1.032h0.303l0.447-1.034
			v1.199H2607.137z"/>
	</g>
	<path id="XMLID_3_" fill="#1D1D1B" d="M2494.484-1191.092v-7.391c0-2.784-1.774-4.656-4.632-4.681
		c-1.503-0.025-3.055,0.443-4.139,2.094c-0.813-1.306-2.094-2.094-3.893-2.094c-1.256,0-2.488,0.37-3.449,1.749v-1.454h-2.563
		v11.776h2.587v-6.529c0-2.045,1.133-3.129,2.882-3.129c1.7,0,2.562,1.109,2.562,3.104v6.553h2.587v-6.529
		c0-2.045,1.183-3.129,2.882-3.129c1.749,0,2.587,1.109,2.587,3.104v6.553H2494.484z M2532.77-1202.868h-4.188v-3.572h-2.587v3.572
		h-2.39v2.34h2.39v5.371c0,2.735,1.059,4.361,4.089,4.361c1.109,0,2.39-0.345,3.203-0.911l-0.739-2.193
		c-0.764,0.443-1.602,0.665-2.267,0.665c-1.281,0-1.7-0.789-1.7-1.971v-5.322h4.188V-1202.868z M2554.622-1203.164
		c-1.478,0-2.439,0.69-3.104,1.724v-1.429h-2.538v11.776h2.562v-6.603c0-1.946,0.838-3.03,2.513-3.03
		c0.517,0,1.059,0.074,1.601,0.296l0.788-2.414C2555.878-1203.065,2555.139-1203.164,2554.622-1203.164L2554.622-1203.164z
		 M2521.585-1201.932c-1.232-0.813-2.932-1.232-4.804-1.232c-2.981,0-4.903,1.429-4.903,3.769c0,1.922,1.429,3.104,4.065,3.474
		l1.207,0.172c1.404,0.197,2.07,0.566,2.07,1.232c0,0.912-0.936,1.429-2.685,1.429c-1.774,0-3.055-0.567-3.917-1.232l-1.207,1.995
		c1.404,1.035,3.178,1.528,5.1,1.528c3.4,0,5.371-1.602,5.371-3.843c0-2.07-1.552-3.154-4.114-3.523l-1.207-0.172
		c-1.109-0.148-1.996-0.369-1.996-1.158c0-0.862,0.837-1.38,2.242-1.38c1.503,0,2.956,0.567,3.671,1.01L2521.585-1201.932z
		 M2590.221-1203.164c-1.478,0-2.439,0.69-3.104,1.724v-1.429h-2.538v11.776h2.562v-6.603c0-1.946,0.838-3.03,2.513-3.03
		c0.518,0,1.06,0.074,1.602,0.296l0.788-2.414C2591.478-1203.065,2590.739-1203.164,2590.221-1203.164L2590.221-1203.164z
		 M2557.209-1196.98c0,3.572,2.488,6.184,6.282,6.184c1.774,0,2.956-0.394,4.237-1.404l-1.232-2.069
		c-0.961,0.69-1.971,1.059-3.08,1.059c-2.045-0.024-3.547-1.503-3.547-3.769c0-2.266,1.503-3.745,3.547-3.769
		c1.109,0,2.119,0.369,3.08,1.059l1.232-2.069c-1.281-1.01-2.464-1.404-4.237-1.404
		C2559.697-1203.164,2557.209-1200.552,2557.209-1196.98L2557.209-1196.98z M2581.205-1196.98v-5.888h-2.562v1.429
		c-0.813-1.059-2.045-1.724-3.72-1.724c-3.301,0-5.888,2.587-5.888,6.184c0,3.597,2.587,6.184,5.888,6.184
		c1.675,0,2.907-0.665,3.72-1.725v1.429h2.562V-1196.98z M2571.67-1196.98c0-2.069,1.355-3.769,3.573-3.769
		c2.119,0,3.548,1.626,3.548,3.769c0,2.143-1.429,3.769-3.548,3.769C2573.025-1193.211,2571.67-1194.911,2571.67-1196.98
		L2571.67-1196.98z M2540.752-1203.164c-3.449,0-5.864,2.513-5.864,6.184c0,3.745,2.513,6.184,6.036,6.184
		c1.774,0,3.4-0.444,4.829-1.651l-1.257-1.897c-0.985,0.788-2.242,1.232-3.424,1.232c-1.651,0-3.154-0.764-3.523-2.883h8.746
		c0.025-0.32,0.049-0.64,0.049-0.985C2546.32-1200.651,2544.053-1203.164,2540.752-1203.164L2540.752-1203.164z M2540.702-1200.873
		c1.651,0,2.71,1.035,2.981,2.858h-6.11C2537.844-1199.715,2538.879-1200.873,2540.702-1200.873L2540.702-1200.873z
		 M2604.979-1196.98v-10.618h-2.562v6.159c-0.813-1.059-2.045-1.724-3.72-1.724c-3.302,0-5.888,2.587-5.888,6.184
		c0,3.597,2.587,6.184,5.888,6.184c1.675,0,2.907-0.665,3.72-1.725v1.429h2.562V-1196.98z M2607.973-1192.179
		c0.105,0,0.204,0.02,0.296,0.058c0.092,0.039,0.173,0.093,0.242,0.16c0.069,0.068,0.123,0.147,0.163,0.238
		c0.04,0.091,0.06,0.188,0.06,0.29c0,0.103-0.02,0.199-0.06,0.29c-0.04,0.09-0.094,0.169-0.163,0.237
		c-0.069,0.068-0.15,0.121-0.242,0.161c-0.092,0.04-0.191,0.06-0.296,0.06c-0.107,0-0.208-0.02-0.301-0.06
		c-0.094-0.04-0.175-0.093-0.243-0.161c-0.068-0.068-0.123-0.147-0.162-0.237c-0.04-0.09-0.06-0.187-0.06-0.29
		c0-0.103,0.02-0.199,0.06-0.29c0.04-0.091,0.094-0.17,0.162-0.238c0.068-0.068,0.149-0.121,0.243-0.16
		C2607.765-1192.159,2607.866-1192.179,2607.973-1192.179z M2607.973-1190.849c0.081,0,0.156-0.015,0.225-0.046
		c0.07-0.031,0.131-0.072,0.183-0.125s0.094-0.114,0.124-0.185c0.03-0.071,0.045-0.146,0.045-0.227c0-0.08-0.015-0.156-0.045-0.227
		c-0.03-0.071-0.071-0.132-0.124-0.185c-0.052-0.052-0.114-0.094-0.183-0.123c-0.07-0.03-0.145-0.045-0.225-0.045
		c-0.082,0-0.158,0.015-0.23,0.045c-0.071,0.03-0.133,0.071-0.186,0.123c-0.052,0.053-0.094,0.114-0.124,0.185
		c-0.03,0.071-0.045,0.147-0.045,0.227c0,0.081,0.015,0.156,0.045,0.227c0.03,0.071,0.071,0.133,0.124,0.185
		s0.115,0.094,0.186,0.125C2607.815-1190.864,2607.891-1190.849,2607.973-1190.849z M2608.017-1191.781
		c0.089,0,0.158,0.02,0.206,0.06c0.048,0.04,0.072,0.094,0.072,0.162c0,0.057-0.019,0.105-0.058,0.142
		c-0.038,0.037-0.093,0.06-0.164,0.069l0.227,0.262h-0.178l-0.21-0.26h-0.068v0.26h-0.148v-0.694H2608.017z M2607.845-1191.651
		v0.185h0.17c0.039,0,0.07-0.008,0.093-0.023c0.023-0.015,0.035-0.039,0.035-0.07c0-0.031-0.012-0.053-0.035-0.069
		c-0.023-0.015-0.054-0.023-0.093-0.023H2607.845z M2595.444-1196.98c0-2.069,1.355-3.769,3.572-3.769
		c2.119,0,3.548,1.626,3.548,3.769c0,2.143-1.429,3.769-3.548,3.769C2596.8-1193.211,2595.444-1194.911,2595.444-1196.98
		L2595.444-1196.98z M2508.922-1196.98v-5.888h-2.563v1.429c-0.813-1.059-2.045-1.724-3.72-1.724c-3.301,0-5.888,2.587-5.888,6.184
		c0,3.597,2.587,6.184,5.888,6.184c1.675,0,2.907-0.665,3.72-1.725v1.429h2.563V-1196.98z M2499.387-1196.98
		c0-2.069,1.355-3.769,3.572-3.769c2.119,0,3.548,1.626,3.548,3.769c0,2.143-1.429,3.769-3.548,3.769
		C2500.742-1193.211,2499.387-1194.911,2499.387-1196.98z"/>
</g>
<text transform="matrix(1 0 0 1 1849.2344 291.251)" font-family="'MyriadPro-Regular'" font-size="12">Lorem ipsum</text>
</svg>
